<svg width="3277" height="1340" xmlns="http://www.w3.org/2000/svg" xmlns:xlink="http://www.w3.org/1999/xlink" overflow="hidden"><defs><clipPath id="clip0"><rect x="380" y="1190" width="3277" height="1340"/></clipPath><clipPath id="clip1"><rect x="546" y="1276" width="707" height="707"/></clipPath><clipPath id="clip2"><rect x="546" y="1276" width="707" height="707"/></clipPath><clipPath id="clip3"><rect x="546" y="1276" width="707" height="707"/></clipPath></defs><g clip-path="url(#clip0)" transform="translate(-380 -1190)"><path d="M766.041 1702 766.048 1702 3208.94 1702 3208.94 1703.27 3234.96 1702C3431.6 1702 3591 1855.57 3591 2045 3591 2234.43 3431.6 2388 3234.96 2388L3208.94 2386.73 3208.94 2388 753.045 2388 753.045 2387.37 729.637 2386.23C550.102 2368.66 410 2222.59 410 2045 410 1867.41 550.102 1721.34 729.637 1703.77L753.045 1702.63 753.045 1702 766.033 1702Z" stroke="#FF0000" stroke-width="59.5833" stroke-miterlimit="8" fill="#FFFFFF" fill-rule="evenodd"/><text font-family="Calibri,Calibri_MSFontService,sans-serif" font-weight="700" font-size="403" transform="matrix(1 0 0 1 1041.23 2181)">0303<tspan font-size="403" x="818.125" y="0">-</tspan>0888395</text><path d="M1552.11 1281 1552.12 1281 2705.6 1281 2705.6 1281.49 2717.89 1281C2810.73 1281 2886 1340.32 2886 1413.5 2886 1486.68 2810.73 1546 2717.89 1546L2705.6 1545.51 2705.6 1546 1545.98 1546 1545.98 1545.76 1534.93 1545.32C1450.15 1538.53 1384 1482.1 1384 1413.5 1384 1344.9 1450.15 1288.47 1534.93 1281.68L1545.98 1281.24 1545.98 1281 1552.11 1281Z" stroke="#FF0000" stroke-width="59.5833" stroke-miterlimit="8" fill="#FF0000" fill-rule="evenodd"/><text fill="#FFFFFF" font-family="Calibri,Calibri_MSFontService,sans-serif" font-weight="400" font-size="248" transform="matrix(1 0 0 1 1524.14 1497)">Call us now!</text><path d="M595 1623.5C595 1450.36 735.359 1310 908.5 1310 1081.64 1310 1222 1450.36 1222 1623.5 1222 1796.64 1081.64 1937 908.5 1937 735.359 1937 595 1796.64 595 1623.5Z" fill="#FF0000" fill-rule="evenodd"/><g clip-path="url(#clip1)"><g clip-path="url(#clip2)"><g clip-path="url(#clip3)"><path d="M819.104 1570.76C823.064 1566.65 825.278 1561.16 825.282 1555.46 825.306 1549.66 823 1544.1 818.883 1540.01L749.166 1470.22C745.051 1466.1 739.472 1463.78 733.649 1463.75 727.851 1463.8 722.303 1466.12 718.205 1470.22L710.483 1478.02 811.088 1578.4Z" fill="#FFFFFF"/><path d="M920.224 1749.31C916.008 1753.6 909.117 1753.66 904.832 1749.44 904.79 1749.4 904.748 1749.36 904.707 1749.31L779.686 1624.29C775.384 1619.99 775.384 1613.01 779.686 1608.7L795.277 1593.55 695.039 1493.39C688.568 1499.86 682.243 1506.19 678.125 1510.08 668.038 1519.51 662.001 1532.48 661.284 1546.27 660.374 1568.75 664.39 1591.17 673.05 1611.94 681.349 1630.55 691.525 1648.27 703.423 1664.81 744.8 1726.89 797.132 1780.92 857.861 1824.25 868 1831.75 878.666 1838.51 889.778 1844.48 914.889 1857.67 942.401 1865.68 970.673 1868.01 990.011 1869.42 1008.94 1861.98 1022.15 1847.79L1035.98 1833.96 935.373 1733.72Z" fill="#FFFFFF"/><path d="M1059.07 1779.83 989.353 1709.9C980.757 1701.39 966.915 1701.39 958.318 1709.9L950.964 1717.84 1051.28 1818.59 1059.07 1811.24C1067.58 1802.64 1067.58 1788.8 1059.07 1780.2Z" fill="#FFFFFF"/><path d="M1003.99 1643.71 974.571 1643.71C971.382 1601.52 941.196 1566.27 900 1556.64L900 1526.63C957.556 1536.93 1000.55 1585.34 1003.99 1643.71Z" fill="#FFFFFF"/><path d="M1074.29 1629C1074.29 1633.93 1074.29 1638.85 1073.63 1643.71L1044.22 1643.71C1044.72 1638.82 1044.97 1633.91 1044.95 1629 1044.83 1549.01 979.992 1484.2 900 1484.12L900 1454.71C996.226 1454.79 1074.21 1532.77 1074.29 1629Z" fill="#FFFFFF"/><path d="M1150.04 1629C1150.04 1633.93 1150.04 1638.85 1149.53 1643.71L1120.11 1643.71C1120.11 1638.85 1120.7 1633.93 1120.7 1629 1120.7 1511.21 1025.21 1415.73 907.428 1415.73 907.403 1415.73 907.378 1415.73 907.354 1415.73 904.854 1415.73 902.427 1415.73 900 1415.73L900 1386.31 907.354 1386.31C1041.39 1386.31 1150.04 1494.97 1150.04 1629Z" fill="#FFFFFF"/></g></g></g><path d="M117 0 75.4078 0 41.5921 0 0 0C8.33434 0 15.0852 25.3008 15.0852 56.5 15.0852 87.6993 8.33434 113 0 113L41.5921 113 75.4078 113 117 113C108.666 113 101.915 87.6993 101.915 56.5 101.915 25.3008 108.666 0 117 0Z" fill="#FF0000" fill-rule="evenodd" transform="matrix(-1 0 0 1 2679 1567)"/></g></svg>