<svg width="4400" height="1799" xmlns="http://www.w3.org/2000/svg" xmlns:xlink="http://www.w3.org/1999/xlink" xml:space="preserve" overflow="hidden"><defs><clipPath id="clip0"><rect x="0" y="338" width="4400" height="1799"/></clipPath></defs><g clip-path="url(#clip0)" transform="matrix(1 0 0 1 0 -338)"><path d="M541.043 687.379 3820.73 687.379 3820.73 689.124 3855.77 687.379C4119.71 687.379 4333.71 893.593 4333.71 1147.87 4333.71 1402.15 4119.71 1608.36 3855.77 1608.36L3820.73 1606.61 3820.73 1608.36 523.59 1608.36 523.59 1607.55 492.174 1605.94C251.189 1582.45 63.0993 1386.3 63.0993 1147.87 63.0993 909.435 251.189 713.29 492.174 689.796L523.59 688.185 523.59 687.379C523.59 687.379 541.043 687.379 541.043 687.379Z" stroke="#FF0000" stroke-width="80.0152" stroke-miterlimit="8" fill="#FFFFFF" fill-rule="evenodd" transform="matrix(1.00011 0 0 1 0 338)"/><path d="M1573.59 122.171 3122.21 122.171 3122.21 122.842 3138.72 122.171C3263.31 122.171 3364.4 201.783 3364.4 300.057 3364.4 398.331 3263.31 477.943 3138.72 477.943L3122.21 477.272 3122.21 477.943 1565.4 477.943 1565.4 477.675 1550.5 477.004C1436.78 467.874 1347.91 392.155 1347.91 300.057 1347.91 207.959 1436.78 132.24 1550.5 123.111L1565.4 122.439 1565.4 122.171Z" stroke="#FF0000" stroke-width="80.0152" stroke-miterlimit="8" fill="#FF0000" fill-rule="evenodd" transform="matrix(1.00011 0 0 1 0 338)"/><text fill="#FFFFFF" font-family="Calibri,Calibri_MSFontService,sans-serif" font-weight="400" font-size="248" transform="matrix(1.34269 0 0 1.34254 0 338)">Call us now</text><text fill="#FFFFFF" font-family="Calibri,Calibri_MSFontService,sans-serif" font-weight="400" font-size="248" transform="matrix(1.34269 0 0 1.34254 1532.91 338)">!</text><path d="M288.646 581.99C288.646 349.597 477.138 161.104 709.531 161.104 941.924 161.104 1130.42 349.597 1130.42 581.99 1130.42 814.383 941.924 1002.88 709.531 1002.88 477.138 1002.88 288.646 814.383 288.646 581.99Z" fill="#FF0000" fill-rule="evenodd" transform="matrix(1.00011 0 0 1 0 338)"/><g><g><g><path d="M589.508 511.238C594.878 505.734 597.832 498.35 597.832 490.697 597.832 482.911 594.744 475.393 589.24 469.888L495.665 376.179C490.16 370.675 482.642 367.587 474.721 367.453 467.069 367.587 459.551 370.675 454.046 376.179L443.709 386.651 578.768 521.442Z" fill="#FFFFFF" transform="matrix(1.00011 0 0 1 0 338)"/><path d="M725.239 750.881C719.6 756.654 710.336 756.788 704.564 751.015 704.564 751.015 704.519 750.971 704.429 750.881L536.612 583.064C530.839 577.291 530.839 567.893 536.612 562.12L557.556 541.714 422.899 407.326C414.307 416.052 405.715 424.51 400.21 429.746 386.651 442.366 378.596 459.819 377.656 478.346 376.447 508.553 381.818 538.626 393.363 566.417 404.507 591.388 418.2 615.285 434.177 637.437 489.758 720.808 559.972 793.305 641.599 851.571 655.158 861.641 669.523 870.635 684.426 878.691 718.123 896.412 755.043 907.153 793.037 910.24 818.948 912.12 844.322 902.185 862.043 883.121L880.705 864.594 745.645 729.938Z" fill="#FFFFFF" transform="matrix(1.00011 0 0 1 0 338)"/><path d="M911.717 791.829 818.142 697.985C806.596 686.574 787.935 686.574 776.389 697.985L766.589 708.591 901.245 843.919 911.717 833.984C923.129 822.438 923.129 803.911 911.717 792.366Z" fill="#FFFFFF" transform="matrix(1.00011 0 0 1 0 338)"/><path d="M837.743 609.109 798.273 609.109C793.977 552.454 753.432 505.197 698.119 492.174L698.119 451.898C775.45 465.726 833.044 530.705 837.743 609.109Z" fill="#FFFFFF" transform="matrix(1.00011 0 0 1 0 338)"/><path d="M932.124 589.374C932.124 595.952 932.124 602.531 931.184 609.109L891.713 609.109C892.429 602.576 892.787 595.997 892.787 589.374 892.519 481.971 805.522 394.975 698.119 394.84L698.119 355.37C827.272 355.504 931.99 460.222 932.124 589.374Z" fill="#FFFFFF" transform="matrix(1.00011 0 0 1 0 338)"/><path d="M1033.75 589.374C1033.75 595.952 1033.75 602.531 1033.08 609.109L993.612 609.109C993.612 602.531 994.417 595.952 994.417 589.374 994.417 431.223 866.205 303.011 708.054 303.011 708.054 303.011 708.054 303.011 708.054 303.011 704.698 303.011 701.342 303.011 698.119 303.011L698.119 263.54 708.054 263.54C887.954 263.54 1033.75 409.474 1033.75 589.374Z" fill="#FFFFFF" transform="matrix(1.00011 0 0 1 0 338)"/></g></g></g><path d="M2929.42 506.137 2985.27 506.137 3030.64 506.137 3086.49 506.137C3075.35 506.137 3066.22 540.103 3066.22 581.99 3066.22 623.877 3075.35 657.843 3086.49 657.843L3030.64 657.843 2985.27 657.843 2929.42 657.843C2940.56 657.843 2949.69 623.877 2949.69 581.99 2949.69 540.103 2940.56 506.137 2929.42 506.137Z" fill="#FF0000" fill-rule="evenodd" transform="matrix(1.00011 0 0 1 0 338)"/><text font-family="Montserrat,Montserrat_MSFontService,sans-serif" font-weight="400" font-size="504" transform="matrix(1 0 0 1 929.419 1649)">03106666195</text><text fill="#FFFFFF" font-family="Montserrat,Montserrat_MSFontService,sans-serif" font-weight="400" font-size="303" transform="matrix(1 0 0 1 1457.07 731)">Call us now!</text></g></svg>
