<?xml version="1.0" encoding="UTF-8" ?>
<!DOCTYPE svg PUBLIC "-//W3C//DTD SVG 1.1//EN" "http://www.w3.org/Graphics/SVG/1.1/DTD/svg11.dtd">
<svg width="1452pt" height="452pt" viewBox="0 0 1452 452" version="1.1" xmlns="http://www.w3.org/2000/svg">
<g id="#f58620ff">
<path fill="#f58620" opacity="1.00" d=" M 231.14 8.13 C 231.45 8.31 232.07 8.66 232.38 8.84 C 233.74 26.06 230.43 43.30 224.69 59.49 C 222.01 65.11 219.90 71.04 216.24 76.15 C 209.35 87.12 201.26 97.54 190.83 105.37 C 188.94 105.73 187.07 106.29 185.49 107.44 C 170.76 117.28 154.41 124.66 137.28 129.18 C 112.93 135.49 88.98 144.22 67.39 157.26 C 67.45 157.79 67.58 158.86 67.64 159.39 C 60.13 163.88 53.06 169.06 45.98 174.18 C 38.60 180.67 31.32 187.46 25.65 195.54 C 22.33 199.69 19.74 204.34 16.60 208.61 C 16.29 201.98 20.93 196.36 21.91 189.92 C 23.51 175.38 26.88 160.97 32.58 147.47 C 33.44 145.56 33.91 143.52 34.32 141.47 C 37.18 136.65 40.47 132.08 44.42 128.08 C 47.22 124.64 50.52 121.68 53.87 118.78 C 55.74 117.10 57.70 115.53 59.66 113.95 C 57.36 119.37 52.37 122.75 48.96 127.36 C 43.92 130.66 41.10 136.18 38.33 141.33 C 35.11 148.30 31.08 155.96 33.61 163.81 C 35.63 161.50 37.98 159.33 41.17 158.99 C 44.49 153.50 50.00 150.00 54.18 145.25 C 66.96 133.11 83.02 125.36 98.69 117.67 C 110.54 112.50 122.66 107.98 134.90 103.82 C 147.73 99.98 159.40 93.26 171.28 87.24 C 177.90 82.63 185.16 78.74 190.75 72.82 C 195.14 68.40 200.77 65.15 203.98 59.63 C 211.46 51.26 217.87 41.95 223.10 32.02 C 224.55 29.38 225.51 26.52 226.16 23.59 C 214.79 28.03 207.54 39.24 195.85 43.19 C 206.41 35.44 217.13 27.52 225.13 17.01 C 227.38 14.22 228.96 10.96 231.14 8.13 Z" />
</g>
<g id="#00000013">
<path fill="#000000" opacity="0.07" d=" M 232.38 8.84 C 233.29 11.56 234.44 14.20 235.04 17.01 C 236.04 29.45 234.10 41.93 230.84 53.92 C 229.12 62.50 225.12 70.36 221.09 78.05 C 218.07 84.11 213.56 89.23 209.83 94.84 C 207.55 98.47 204.22 101.22 201.26 104.25 C 193.37 112.62 183.72 119.10 173.71 124.64 C 162.48 131.01 150.33 135.64 137.86 138.93 C 135.85 139.17 134.83 140.83 134.07 142.51 C 128.41 144.24 122.68 145.75 117.04 147.54 C 99.69 153.10 82.74 160.32 67.34 170.10 C 56.96 176.20 47.49 183.83 39.02 192.39 C 29.27 201.83 21.62 213.42 16.43 225.95 C 10.00 241.05 8.65 257.77 9.90 273.99 C 11.22 285.63 14.30 296.96 17.68 308.15 C 18.99 312.05 20.55 315.88 22.55 319.49 C 23.27 318.06 24.16 316.64 24.20 314.99 C 24.72 309.19 24.91 303.38 25.47 297.59 C 26.21 295.88 27.00 294.18 27.49 292.38 C 31.30 275.15 41.02 259.75 52.90 246.92 C 54.18 245.30 56.26 246.35 57.85 246.73 C 52.89 252.34 48.02 258.15 44.55 264.82 C 45.31 264.85 46.82 264.91 47.57 264.94 C 47.87 266.68 47.50 268.74 48.66 270.24 C 51.80 271.93 55.51 271.72 58.97 271.79 C 86.97 271.65 114.98 271.85 142.98 271.68 C 158.54 271.01 174.65 267.71 187.58 258.61 C 194.02 253.30 200.10 247.15 203.44 239.36 C 206.14 233.11 208.90 226.28 207.42 219.36 C 208.53 208.64 208.66 197.39 204.28 187.31 C 204.77 187.45 205.74 187.71 206.23 187.85 C 209.49 194.79 212.48 202.21 212.20 210.04 C 211.96 216.67 212.81 223.48 210.97 229.95 C 209.56 234.88 208.14 239.91 205.30 244.25 C 203.64 246.62 203.14 249.49 202.11 252.14 C 189.14 268.90 167.41 275.82 146.95 276.84 C 114.64 276.81 82.33 276.88 50.03 276.78 C 46.48 276.97 43.42 275.03 40.86 272.79 C 39.54 273.86 38.18 274.99 37.61 276.65 C 35.77 281.17 34.03 285.72 32.24 290.26 C 28.66 300.38 30.90 311.32 28.47 321.64 C 27.87 324.15 25.56 326.27 23.00 326.60 C 20.47 326.16 17.35 325.39 16.39 322.66 C 14.37 317.68 11.91 312.84 10.53 307.63 C 6.98 292.05 2.83 276.20 4.49 260.08 C 5.23 254.71 5.37 249.22 7.13 244.04 C 8.84 238.95 9.20 233.43 11.75 228.63 C 13.26 225.42 15.25 222.40 16.27 218.97 C 16.28 216.30 13.00 216.19 11.50 214.64 C 9.13 210.70 11.34 206.17 11.32 201.97 C 11.49 195.89 14.00 190.11 14.18 184.08 C 11.68 180.73 7.95 177.60 8.20 173.00 C 8.08 134.99 8.26 96.98 8.16 58.97 C 8.09 54.93 9.78 50.04 14.01 48.74 C 14.01 90.41 13.96 132.08 14.12 173.75 C 14.87 172.90 15.58 172.02 16.25 171.12 C 17.13 170.91 18.00 170.70 18.87 170.49 C 19.49 171.39 20.11 172.28 20.73 173.18 C 17.63 185.34 15.32 197.79 14.67 210.33 C 15.16 210.08 16.13 209.59 16.61 209.34 C 18.57 208.52 20.17 207.10 21.26 205.29 C 29.34 193.28 39.27 182.43 51.25 174.23 C 70.48 159.89 92.39 149.45 115.17 142.13 C 127.47 137.70 140.43 135.38 152.67 130.76 C 168.63 124.59 184.06 116.32 196.61 104.55 C 203.90 98.38 209.21 90.36 214.65 82.62 C 218.19 77.55 220.80 71.93 223.31 66.31 C 224.36 64.18 224.53 61.81 224.69 59.49 C 230.43 43.30 233.74 26.06 232.38 8.84 Z" />
</g>
<g id="#ff9d38ff">
<path fill="#ff9d38" opacity="1.00" d=" M 195.85 43.19 C 207.54 39.24 214.79 28.03 226.16 23.59 C 225.51 26.52 224.55 29.38 223.10 32.02 C 217.87 41.95 211.46 51.26 203.98 59.63 C 197.07 63.81 190.28 68.17 183.52 72.56 C 170.38 79.79 156.70 85.95 143.06 92.14 C 124.96 99.27 107.29 107.40 89.70 115.66 C 79.94 121.62 69.98 127.26 60.26 133.31 C 56.14 135.99 52.23 139.43 47.30 140.47 C 45.57 140.94 43.86 139.03 44.41 137.37 C 45.29 133.78 47.83 130.87 48.96 127.36 C 52.37 122.75 57.36 119.37 59.66 113.95 C 60.37 113.31 61.09 112.67 61.83 112.06 C 71.49 105.03 81.74 98.81 92.50 93.60 C 94.55 92.60 96.58 91.58 98.64 90.59 C 99.10 90.73 100.03 91.01 100.50 91.15 C 91.92 95.48 82.93 99.23 75.44 105.37 C 69.91 108.05 66.94 113.54 63.03 117.97 C 67.33 117.20 70.94 114.73 74.72 112.72 C 86.64 107.35 98.55 101.96 110.42 96.49 C 122.46 91.60 134.54 86.79 146.34 81.34 C 157.75 75.44 169.69 70.50 180.43 63.39 C 185.10 60.45 189.97 57.76 194.16 54.13 C 198.61 50.20 203.65 46.82 207.10 41.91 C 196.28 45.86 186.24 51.53 176.28 57.24 C 174.20 58.49 171.91 59.29 169.62 60.04 C 170.54 59.11 171.43 58.15 172.36 57.24 C 180.22 52.62 188.15 48.07 195.85 43.19 Z" />
</g>
<g id="#feb64cff">
<path fill="#feb64c" opacity="1.00" d=" M 176.28 57.24 C 186.24 51.53 196.28 45.86 207.10 41.91 C 203.65 46.82 198.61 50.20 194.16 54.13 C 189.97 57.76 185.10 60.45 180.43 63.39 C 169.69 70.50 157.75 75.44 146.34 81.34 C 134.54 86.79 122.46 91.60 110.42 96.49 C 98.55 101.96 86.64 107.35 74.72 112.72 C 70.94 114.73 67.33 117.20 63.03 117.97 C 66.94 113.54 69.91 108.05 75.44 105.37 C 82.93 99.23 91.92 95.48 100.50 91.15 C 118.04 83.37 136.06 76.69 153.37 68.38 C 159.01 66.05 164.39 63.17 169.62 60.04 C 171.91 59.29 174.20 58.49 176.28 57.24 Z" />
<path fill="#feb64c" opacity="1.00" d=" M 185.49 107.44 C 187.07 106.29 188.94 105.73 190.83 105.37 C 178.49 115.39 164.08 122.66 149.11 127.88 C 140.57 130.64 131.91 132.98 123.25 135.30 C 110.62 139.11 98.25 143.81 86.35 149.52 C 79.83 152.25 73.61 155.61 67.64 159.39 C 67.58 158.86 67.45 157.79 67.39 157.26 C 88.98 144.22 112.93 135.49 137.28 129.18 C 154.41 124.66 170.76 117.28 185.49 107.44 Z" />
</g>
<g id="#ffffffff">
<path fill="#ffffff" opacity="1.00" d=" M 14.01 47.03 C 56.00 47.02 97.99 47.02 139.99 47.01 C 149.86 46.92 159.69 48.46 169.19 51.15 C 169.31 52.87 168.15 53.76 166.67 54.22 C 165.31 54.85 163.94 55.48 162.59 56.12 C 147.08 63.86 131.13 70.69 114.99 77.01 C 109.74 78.96 104.83 82.54 99.00 82.28 C 84.52 82.24 70.05 82.27 55.57 82.32 L 55.27 82.32 C 55.14 90.90 55.19 99.48 55.10 108.06 C 55.25 109.49 54.51 110.70 53.55 111.68 C 38.74 123.96 26.81 139.89 20.16 158.01 C 18.35 162.21 17.13 166.64 16.25 171.12 C 15.58 172.02 14.87 172.90 14.12 173.75 C 13.96 132.08 14.01 90.41 14.01 48.74 C 14.01 48.31 14.01 47.46 14.01 47.03 Z" />
<path fill="#ffffff" opacity="1.00" d=" M 986.99 110.92 C 991.33 110.91 995.67 110.90 1000.03 110.91 C 1000.00 112.76 1000.02 114.61 1000.03 116.46 C 999.95 163.65 1000.02 210.83 1000.00 258.01 C 995.68 258.04 991.36 258.01 987.04 258.01 C 986.89 209.62 987.00 161.22 986.99 112.82 C 986.99 112.34 986.99 111.39 986.99 110.92 Z" />
<path fill="#ffffff" opacity="1.00" d=" M 571.30 113.04 C 578.35 113.03 585.40 113.05 592.45 113.03 C 592.54 161.37 592.43 209.72 592.51 258.06 C 586.87 257.95 581.24 258.02 575.61 258.03 C 574.82 258.03 573.24 258.03 572.45 258.03 C 572.35 257.88 572.14 257.57 572.04 257.42 C 572.03 253.51 572.00 249.60 572.00 245.70 C 566.13 252.17 558.44 257.19 549.79 258.87 C 538.23 261.05 525.57 259.14 515.94 252.13 C 510.74 248.51 506.87 243.38 503.41 238.16 C 494.85 222.72 494.06 204.01 497.68 187.03 C 500.80 173.88 508.98 161.52 521.16 155.21 C 533.29 149.17 548.34 149.28 560.35 155.57 C 564.39 157.84 567.96 160.85 571.16 164.19 C 571.15 148.70 571.36 133.21 571.30 117.72 C 571.29 116.15 571.29 114.59 571.30 113.04 M 524.78 178.81 C 516.84 189.51 515.78 203.95 518.30 216.64 C 519.36 222.93 522.00 229.42 526.83 233.77 C 535.86 243.76 553.87 243.23 562.57 232.95 C 567.06 227.63 570.15 220.94 570.62 213.95 L 570.71 214.89 C 572.16 205.25 571.84 194.95 567.74 185.96 L 567.70 185.92 C 565.82 181.63 563.16 177.54 559.39 174.68 C 549.25 166.60 532.62 168.31 524.78 178.81 Z" />
<path fill="#ffffff" opacity="1.00" d=" M 611.58 121.26 C 614.75 115.30 622.52 112.58 628.64 115.61 C 631.18 117.07 633.12 119.30 634.73 121.72 C 635.47 124.22 635.59 126.84 635.58 129.44 C 634.11 133.55 631.18 137.42 626.87 138.73 C 622.80 140.09 618.35 139.02 614.91 136.62 C 612.91 134.59 611.40 132.12 610.47 129.43 C 610.39 126.66 610.53 123.85 611.58 121.26 Z" />
<path fill="#ffffff" opacity="1.00" d=" M 874.84 117.00 C 902.75 117.03 930.66 116.85 958.57 117.09 C 958.57 117.51 958.57 118.35 958.57 118.77 C 958.57 119.22 958.57 120.13 958.57 120.59 C 958.52 123.47 958.50 126.35 958.51 129.24 C 935.18 129.13 911.84 129.22 888.51 129.20 L 888.33 129.20 C 888.34 146.79 888.34 164.38 888.33 181.98 C 889.81 181.99 891.30 182.00 892.81 182.00 C 894.13 182.00 895.46 182.00 896.80 182.00 C 915.51 181.92 934.22 182.07 952.92 181.92 C 952.90 183.42 952.92 184.92 952.93 186.43 C 952.90 188.89 952.91 191.36 952.97 193.83 L 952.69 194.01 C 931.23 194.01 909.78 193.99 888.32 194.02 C 888.31 215.34 888.31 236.67 888.32 258.00 C 884.72 257.98 881.13 258.00 877.54 258.09 C 876.98 258.05 875.86 257.96 875.31 257.91 L 874.84 257.86 C 874.78 213.30 874.84 168.74 874.81 124.18 C 874.80 121.79 874.82 119.39 874.84 117.00 Z" />
<path fill="#ffffff" opacity="1.00" d=" M 260.67 155.21 C 267.69 150.26 276.73 150.25 284.86 151.70 L 284.88 152.63 C 284.90 153.14 284.92 154.15 284.93 154.66 C 284.87 160.44 284.90 166.23 284.96 172.02 C 283.90 171.83 282.83 171.66 281.78 171.49 C 276.34 170.64 270.59 170.49 265.39 172.52 C 259.92 174.91 255.91 180.14 254.74 185.96 C 253.95 189.57 253.90 193.29 253.93 196.98 C 254.02 217.32 254.04 237.65 254.00 257.99 C 253.62 258.02 252.86 258.07 252.47 258.09 C 247.19 257.98 241.90 258.00 236.62 258.05 C 235.39 258.04 234.16 258.02 232.93 258.01 C 232.87 225.44 233.04 192.88 232.84 160.32 C 232.85 157.68 232.91 155.05 232.99 152.42 C 239.65 152.45 246.32 152.43 252.98 152.43 L 252.99 153.04 C 253.01 156.11 253.04 159.18 253.02 162.25 C 255.31 159.63 257.72 157.08 260.67 155.21 Z" />
<path fill="#ffffff" opacity="1.00" d=" M 325.57 151.75 C 338.83 149.57 353.67 150.72 364.72 159.04 C 371.89 164.30 376.42 172.62 377.32 181.43 C 377.70 206.95 377.48 232.49 377.55 258.02 C 370.79 258.07 364.04 258.06 357.29 258.00 C 357.25 255.93 357.21 253.85 357.18 251.78 C 357.15 249.68 357.12 247.58 357.12 245.48 C 351.22 251.87 343.57 256.79 335.05 258.75 C 328.09 260.40 320.82 259.77 313.89 258.30 C 304.48 255.44 296.14 248.68 292.50 239.41 C 290.35 232.79 289.95 225.65 291.59 218.88 C 294.13 209.21 302.53 202.26 311.65 199.01 C 316.77 197.20 322.16 196.32 327.55 195.81 C 334.72 195.30 341.90 194.98 349.08 194.55 C 350.81 194.44 352.55 194.32 354.29 194.22 C 354.82 194.18 355.88 194.12 356.41 194.09 C 356.51 189.71 356.68 185.24 355.48 180.99 C 353.74 175.79 349.26 171.84 343.95 170.61 C 336.96 168.97 329.14 169.24 322.76 172.81 C 318.02 175.50 315.55 180.72 314.42 185.85 C 308.54 185.89 302.66 185.88 296.78 185.93 C 296.14 185.94 294.85 185.96 294.20 185.97 C 294.66 181.16 295.58 176.36 297.53 171.92 C 302.50 160.83 313.84 153.69 325.57 151.75 M 330.05 212.94 C 324.41 213.48 318.24 214.96 314.47 219.53 C 311.34 223.39 311.21 228.90 313.15 233.33 C 314.55 235.45 316.19 237.45 318.50 238.62 C 324.93 242.27 333.14 242.10 339.96 239.59 L 339.81 239.48 L 340.78 239.36 C 342.02 238.94 343.19 238.34 344.35 237.76 C 348.89 234.96 352.71 230.93 354.86 226.03 L 354.47 225.61 L 354.75 225.82 C 355.96 223.27 356.18 220.43 356.49 217.67 C 356.42 215.49 356.37 213.31 356.36 211.14 C 347.60 211.87 338.81 212.18 330.05 212.94 Z" />
<path fill="#ffffff" opacity="1.00" d=" M 420.01 159.41 C 429.32 151.50 442.38 149.56 454.15 151.48 C 461.70 152.65 468.77 156.47 473.86 162.17 C 476.40 165.29 478.39 168.79 480.08 172.42 C 482.09 178.42 483.07 184.72 483.01 191.04 C 483.02 213.37 483.02 235.70 483.01 258.03 C 475.99 258.07 468.97 258.07 461.96 258.01 C 462.06 237.01 461.96 216.02 462.01 195.02 C 462.01 189.41 461.58 183.54 458.70 178.58 C 456.50 174.48 452.40 171.63 447.89 170.65 C 439.31 168.53 429.10 170.06 422.99 176.92 C 417.59 182.48 416.11 190.52 416.17 198.01 C 416.25 217.92 416.14 237.83 416.23 257.75 L 415.76 258.05 C 410.02 258.04 404.28 258.00 398.55 258.05 C 397.38 258.04 396.21 258.04 395.05 258.04 C 395.00 224.28 395.07 190.52 395.02 156.76 C 395.01 155.31 395.03 153.86 395.05 152.42 C 401.75 152.47 408.46 152.40 415.16 152.45 C 415.26 156.35 415.30 160.25 415.19 164.14 C 416.70 162.47 418.26 160.84 420.01 159.41 Z" />
<path fill="#ffffff" opacity="1.00" d=" M 680.73 156.92 C 689.01 151.39 699.43 150.09 709.15 151.15 C 717.09 151.97 724.81 155.43 730.31 161.29 C 734.44 165.75 737.18 171.32 738.81 177.14 C 739.67 181.38 740.27 185.69 740.29 190.02 C 740.42 212.71 740.30 235.40 740.39 258.08 C 734.45 257.97 728.51 258.04 722.57 258.05 C 721.44 258.04 720.31 258.03 719.19 258.03 C 719.14 235.80 719.47 213.56 719.19 191.33 C 719.06 187.34 718.32 183.36 716.68 179.71 C 714.51 175.50 710.72 172.09 706.10 170.88 C 697.41 168.47 686.97 169.80 680.54 176.58 C 675.17 182.09 673.31 190.05 673.52 197.55 C 673.49 217.64 673.55 237.73 673.58 257.83 C 673.33 257.89 672.84 258.01 672.60 258.07 C 667.27 258.00 661.95 257.98 656.63 258.05 C 655.21 258.04 653.81 258.04 652.41 258.04 C 652.30 224.57 652.43 191.10 652.35 157.62 C 652.34 155.88 652.36 154.14 652.34 152.40 C 659.06 152.49 665.79 152.38 672.51 152.46 C 672.63 156.28 672.72 160.10 672.62 163.92 C 675.05 161.29 677.74 158.90 680.73 156.92 Z" />
<path fill="#ffffff" opacity="1.00" d=" M 773.19 158.16 C 781.08 152.46 791.09 150.42 800.70 150.84 C 811.73 151.35 822.12 156.74 829.39 164.96 C 829.39 160.78 829.46 156.59 829.49 152.41 C 836.28 152.39 843.07 152.59 849.85 152.30 C 849.83 153.70 849.83 155.11 849.84 156.52 C 849.75 184.02 849.72 211.53 849.70 239.04 C 849.57 249.82 850.73 261.01 846.54 271.26 C 841.41 282.59 830.85 290.99 818.88 294.11 C 806.12 297.39 792.22 297.07 779.93 292.10 C 770.23 287.74 761.86 279.90 758.49 269.62 C 758.10 268.00 757.70 266.39 757.34 264.77 C 757.22 264.18 756.98 263.00 756.86 262.41 C 761.99 262.44 767.13 262.48 772.27 262.47 C 774.09 262.48 775.93 262.47 777.78 262.46 C 780.33 269.60 786.43 275.24 793.89 276.85 C 804.12 279.23 816.57 277.83 823.74 269.39 C 826.22 266.36 827.66 262.62 828.41 258.81 C 828.57 256.78 828.65 254.74 828.64 252.71 C 828.59 250.09 828.56 247.46 828.64 244.83 C 822.92 251.12 815.47 255.98 807.07 257.71 C 795.92 260.12 783.83 258.29 774.10 252.26 C 765.89 246.43 759.90 237.95 756.49 228.53 C 752.38 215.40 751.92 201.25 754.69 187.80 C 757.23 176.21 763.43 165.17 773.19 158.16 M 783.78 176.77 C 774.39 186.81 773.22 201.82 775.27 214.79 L 775.33 214.03 C 776.18 222.92 780.76 232.14 788.72 236.68 L 788.80 236.89 C 794.67 240.05 801.70 240.64 808.13 239.06 C 816.23 237.02 822.67 230.33 825.41 222.61 C 827.15 219.32 827.73 215.59 828.28 211.96 C 829.25 201.70 828.54 190.62 822.76 181.74 L 822.58 181.67 C 815.41 167.89 794.22 165.47 783.78 176.77 Z" />
<path fill="#ffffff" opacity="1.00" d=" M 1048.53 156.54 C 1057.88 151.72 1068.74 150.41 1079.13 151.41 C 1086.90 152.11 1094.63 154.74 1100.69 159.76 C 1103.95 162.55 1106.30 166.18 1108.28 169.96 C 1110.30 175.06 1111.27 180.52 1111.23 186.01 C 1111.32 210.01 1111.28 234.02 1111.28 258.02 C 1107.18 258.04 1103.08 258.03 1098.99 258.00 C 1098.98 255.48 1098.97 252.97 1098.99 250.46 C 1098.97 246.80 1099.04 243.14 1098.85 239.48 C 1096.04 241.87 1094.70 245.47 1092.04 248.00 C 1078.07 262.58 1052.79 263.65 1037.11 251.19 C 1031.86 246.35 1028.64 239.65 1027.64 232.62 C 1027.36 227.41 1027.82 222.10 1029.76 217.21 C 1032.43 211.09 1037.60 206.32 1043.57 203.46 C 1049.94 200.34 1057.00 198.97 1064.03 198.36 C 1073.71 197.56 1083.41 197.07 1093.10 196.32 C 1094.83 196.19 1096.56 196.06 1098.31 195.93 C 1098.34 190.32 1098.73 184.65 1097.60 179.11 C 1096.22 172.85 1091.83 167.33 1085.79 165.01 C 1077.00 161.56 1066.90 161.84 1058.07 164.95 C 1051.70 167.15 1046.45 172.34 1044.71 178.91 C 1041.35 178.92 1037.99 178.95 1034.65 178.98 C 1033.89 178.99 1032.38 179.00 1031.63 179.01 C 1031.99 177.43 1032.37 175.84 1032.82 174.28 C 1035.27 166.49 1041.28 160.12 1048.53 156.54 M 1070.93 208.55 C 1062.11 209.16 1052.23 209.95 1045.52 216.40 C 1039.81 222.09 1039.48 231.65 1043.41 238.43 C 1046.15 242.15 1049.87 245.26 1054.36 246.60 C 1069.27 251.76 1088.67 245.69 1095.42 230.82 L 1095.42 229.92 L 1095.74 230.03 C 1098.64 225.16 1098.43 219.28 1098.35 213.81 C 1098.29 211.44 1098.27 209.07 1098.28 206.70 C 1089.15 207.17 1080.05 207.97 1070.93 208.55 Z" />
<path fill="#ffffff" opacity="1.00" d=" M 1163.71 159.53 C 1172.32 151.39 1185.07 149.80 1196.32 151.87 C 1196.30 156.15 1196.31 160.43 1196.40 164.71 C 1195.98 164.64 1195.14 164.49 1194.72 164.41 C 1187.02 162.99 1178.58 162.85 1171.52 166.67 C 1162.95 171.03 1157.06 180.11 1156.56 189.71 C 1156.34 212.46 1156.62 235.23 1156.53 257.99 C 1152.20 258.04 1147.88 258.00 1143.57 258.01 C 1143.53 222.95 1143.47 187.88 1143.60 152.82 C 1147.70 152.72 1151.81 152.83 1155.93 152.73 C 1155.89 154.68 1155.88 156.64 1155.92 158.59 C 1155.94 162.60 1155.78 166.61 1156.07 170.61 C 1157.77 168.88 1158.57 166.57 1159.72 164.48 C 1160.89 162.72 1162.23 161.05 1163.71 159.53 Z" />
<path fill="#ffffff" opacity="1.00" d=" M 1230.55 158.73 C 1245.35 148.83 1266.04 148.50 1281.28 157.61 C 1291.19 163.92 1297.42 174.64 1300.14 185.87 C 1301.84 193.42 1302.03 201.19 1302.01 208.90 C 1301.64 208.93 1300.88 209.00 1300.50 209.03 C 1274.63 208.84 1248.76 209.00 1222.89 208.95 C 1223.07 211.96 1223.30 214.96 1223.80 217.94 C 1224.48 222.00 1225.71 225.97 1227.52 229.67 C 1231.08 237.50 1237.82 243.99 1246.11 246.55 C 1253.12 248.94 1260.81 248.66 1267.98 247.07 C 1276.18 245.25 1283.94 239.90 1287.24 231.98 C 1291.61 231.96 1295.98 231.94 1300.35 232.01 C 1299.70 233.72 1299.10 235.45 1298.39 237.14 C 1293.71 246.52 1285.13 253.76 1275.12 256.85 C 1263.27 260.56 1250.03 260.92 1238.37 256.36 C 1233.58 254.52 1229.40 251.48 1225.43 248.30 C 1219.35 242.28 1215.15 234.63 1212.51 226.54 C 1209.19 213.68 1208.87 200.01 1211.96 187.08 C 1214.75 175.93 1220.89 165.27 1230.55 158.73 M 1231.74 173.78 C 1226.37 180.73 1223.49 189.36 1223.07 198.09 C 1223.82 198.09 1225.30 198.08 1226.04 198.08 C 1227.89 198.08 1229.75 198.08 1231.63 198.09 C 1248.85 198.07 1266.07 198.08 1283.29 198.10 C 1285.04 198.09 1286.79 198.09 1288.58 198.11 C 1288.33 192.80 1287.86 187.33 1285.60 182.45 C 1284.13 178.04 1281.57 174.01 1278.23 170.77 C 1265.72 158.37 1242.63 160.02 1231.74 173.78 Z" />
<path fill="#ffffff" opacity="1.00" d=" M 612.37 152.39 C 614.00 152.42 615.64 152.43 617.29 152.44 C 622.73 152.43 628.16 152.45 633.60 152.41 C 633.59 153.44 633.59 154.47 633.60 155.51 C 633.58 189.63 633.54 223.75 633.63 257.87 L 633.35 258.03 C 627.42 258.05 621.49 257.98 615.56 258.04 C 614.77 258.04 613.20 258.05 612.41 258.05 C 612.35 223.61 612.42 189.17 612.38 154.73 C 612.38 154.14 612.37 152.98 612.37 152.39 Z" />
<path fill="#ffffff" opacity="1.00" d=" M 165.76 173.83 C 170.75 171.02 175.68 168.10 180.44 164.91 C 190.72 169.21 200.11 176.70 204.28 187.31 C 208.66 197.39 208.53 208.64 207.42 219.36 C 205.05 233.73 196.37 246.76 183.94 254.37 C 170.02 262.23 153.85 265.21 137.99 264.98 C 109.73 265.01 81.48 264.90 53.23 265.06 C 51.34 265.02 49.45 264.96 47.57 264.94 C 46.82 264.91 45.31 264.85 44.55 264.82 C 48.02 258.15 52.89 252.34 57.85 246.73 C 62.15 242.13 66.82 237.88 71.63 233.82 C 73.84 232.15 75.94 229.71 78.96 229.76 C 97.95 229.53 116.94 229.80 135.93 229.56 C 145.24 228.77 155.67 226.50 161.68 218.69 C 165.10 214.05 166.04 208.09 165.64 202.46 C 165.05 195.75 161.29 189.33 155.27 186.13 C 153.45 185.10 151.52 184.24 149.78 183.07 C 149.94 182.70 150.26 181.98 150.42 181.61 C 155.44 178.85 160.85 176.82 165.76 173.83 Z" />
</g>
<g id="#00000029">
<path fill="#000000" opacity="0.16" d=" M 162.59 56.12 C 163.94 55.48 165.31 54.85 166.67 54.22 C 167.97 55.48 169.26 56.74 170.55 58.01 C 168.13 59.13 165.78 60.39 163.42 61.61 C 163.13 59.78 162.86 57.95 162.59 56.12 Z" />
<path fill="#000000" opacity="0.16" d=" M 284.88 152.63 C 287.53 154.26 290.01 156.72 290.32 159.98 C 290.61 163.63 290.58 167.31 290.47 170.98 C 290.31 174.65 288.14 178.44 284.52 179.66 C 280.77 180.79 276.81 181.03 272.94 181.48 C 270.15 181.45 268.04 183.52 265.86 184.97 C 261.57 188.20 260.56 193.94 260.39 199.00 C 260.25 218.00 260.47 237.00 260.34 256.01 C 260.29 260.40 257.90 265.00 253.79 266.87 C 250.84 268.63 247.30 268.41 244.00 268.41 C 240.30 268.39 236.44 267.80 233.29 265.76 C 230.68 263.27 229.50 259.52 229.59 255.97 C 229.66 225.66 229.58 195.35 229.64 165.04 C 229.62 162.56 230.28 160.16 231.10 157.85 C 231.48 158.26 232.23 159.07 232.61 159.48 C 232.26 191.65 232.51 223.83 232.46 256.00 C 232.04 260.32 235.67 264.59 240.07 264.55 C 244.26 264.59 248.72 265.21 252.69 263.60 C 256.78 261.90 257.67 256.99 257.58 253.04 C 257.44 235.02 257.57 217.00 257.47 198.99 C 257.37 193.49 258.98 187.84 262.47 183.54 C 266.88 178.67 273.80 177.45 280.08 177.56 C 283.21 177.83 286.62 176.02 287.49 172.87 C 289.10 166.84 288.78 159.80 284.93 154.66 C 284.92 154.15 284.90 153.14 284.88 152.63 Z" />
</g>
<g id="#00000054">
<path fill="#000000" opacity="0.33" d=" M 114.99 77.01 C 131.13 70.69 147.08 63.86 162.59 56.12 C 162.86 57.95 163.13 59.78 163.42 61.61 C 144.86 70.87 125.62 78.65 106.54 86.72 C 96.72 87.57 86.88 87.48 77.03 87.41 C 69.93 87.55 62.67 86.69 55.76 88.78 C 55.68 86.63 55.61 84.47 55.57 82.32 C 70.05 82.27 84.52 82.24 99.00 82.28 C 104.83 82.54 109.74 78.96 114.99 77.01 Z" />
</g>
<g id="#bd7522ed">
<path fill="#bd7522" opacity="0.93" d=" M 170.55 58.01 C 171.01 57.82 171.91 57.43 172.36 57.24 C 171.43 58.15 170.54 59.11 169.62 60.04 C 164.39 63.17 159.01 66.05 153.37 68.38 C 136.06 76.69 118.04 83.37 100.50 91.15 C 100.03 91.01 99.10 90.73 98.64 90.59 C 101.24 89.24 103.86 87.90 106.54 86.72 C 125.62 78.65 144.86 70.87 163.42 61.61 C 165.78 60.39 168.13 59.13 170.55 58.01 Z" />
</g>
<g id="#f78d2dff">
<path fill="#f78d2d" opacity="1.00" d=" M 183.52 72.56 C 190.28 68.17 197.07 63.81 203.98 59.63 C 200.77 65.15 195.14 68.40 190.75 72.82 C 185.16 78.74 177.90 82.63 171.28 87.24 C 159.40 93.26 147.73 99.98 134.90 103.82 C 122.66 107.98 110.54 112.50 98.69 117.67 C 83.02 125.36 66.96 133.11 54.18 145.25 C 50.00 150.00 44.49 153.50 41.17 158.99 C 37.98 159.33 35.63 161.50 33.61 163.81 C 31.08 155.96 35.11 148.30 38.33 141.33 C 41.10 136.18 43.92 130.66 48.96 127.36 C 47.83 130.87 45.29 133.78 44.41 137.37 C 43.86 139.03 45.57 140.94 47.30 140.47 C 52.23 139.43 56.14 135.99 60.26 133.31 C 69.98 127.26 79.94 121.62 89.70 115.66 C 107.29 107.40 124.96 99.27 143.06 92.14 C 156.70 85.95 170.38 79.79 183.52 72.56 Z" />
</g>
<g id="#00000040">
<path fill="#000000" opacity="0.25" d=" M 216.24 76.15 C 219.90 71.04 222.01 65.11 224.69 59.49 C 224.53 61.81 224.36 64.18 223.31 66.31 C 220.80 71.93 218.19 77.55 214.65 82.62 C 209.21 90.36 203.90 98.38 196.61 104.55 C 184.06 116.32 168.63 124.59 152.67 130.76 C 140.43 135.38 127.47 137.70 115.17 142.13 C 92.39 149.45 70.48 159.89 51.25 174.23 C 39.27 182.43 29.34 193.28 21.26 205.29 C 20.17 207.10 18.57 208.52 16.61 209.34 L 16.60 208.61 C 19.74 204.34 22.33 199.69 25.65 195.54 C 31.32 187.46 38.60 180.67 45.98 174.18 C 53.06 169.06 60.13 163.88 67.64 159.39 C 73.61 155.61 79.83 152.25 86.35 149.52 C 98.25 143.81 110.62 139.11 123.25 135.30 C 131.91 132.98 140.57 130.64 149.11 127.88 C 164.08 122.66 178.49 115.39 190.83 105.37 C 201.26 97.54 209.35 87.12 216.24 76.15 Z" />
<path fill="#000000" opacity="0.25" d=" M 132.85 180.93 C 147.12 175.55 161.08 169.10 173.76 160.57 C 173.98 161.14 174.44 162.28 174.67 162.85 C 161.50 172.28 146.63 179.17 131.33 184.36 C 129.22 185.14 127.31 186.36 125.39 187.52 C 119.54 189.29 113.78 191.33 107.89 192.94 C 97.32 195.94 87.36 200.67 77.61 205.70 C 70.65 209.02 64.53 213.78 58.44 218.46 C 56.40 220.17 53.84 221.83 53.42 224.69 C 49.63 227.34 45.95 230.20 41.79 232.26 C 44.10 227.11 48.92 223.84 52.60 219.76 C 60.85 211.99 70.35 205.60 80.44 200.49 C 96.79 191.23 115.31 187.23 132.85 180.93 Z" />
</g>
<g id="#00000024">
<path fill="#000000" opacity="0.14" d=" M 55.27 82.32 L 55.57 82.32 C 55.61 84.47 55.68 86.63 55.76 88.78 C 62.67 86.69 69.93 87.55 77.03 87.41 C 86.88 87.48 96.72 87.57 106.54 86.72 C 103.86 87.90 101.24 89.24 98.64 90.59 C 96.58 91.58 94.55 92.60 92.50 93.60 C 85.77 91.94 78.82 92.89 71.98 92.62 C 68.73 92.67 65.36 92.24 62.21 93.21 C 59.92 94.58 59.24 97.47 58.91 99.94 C 58.52 104.25 58.19 108.74 59.69 112.89 C 60.22 112.68 61.30 112.27 61.83 112.06 C 61.09 112.67 60.37 113.31 59.66 113.95 C 57.70 115.53 55.74 117.10 53.87 118.78 C 53.74 116.41 53.64 114.05 53.55 111.68 C 54.51 110.70 55.25 109.49 55.10 108.06 C 55.19 99.48 55.14 90.90 55.27 82.32 Z" />
</g>
<g id="#f04037ff">
<path fill="#f04037" opacity="1.00" d=" M 210.05 106.05 C 213.15 103.02 215.94 99.68 218.55 96.23 C 218.65 99.12 218.28 102.00 217.51 104.79 C 213.06 121.14 203.21 135.89 190.64 147.15 C 185.34 148.82 181.76 153.39 177.02 156.08 C 158.21 169.25 136.76 178.07 114.84 184.58 C 100.83 188.68 87.09 193.99 74.48 201.41 C 67.08 205.82 59.64 210.48 53.82 216.92 C 53.04 217.67 52.86 218.76 52.60 219.76 C 48.92 223.84 44.10 227.11 41.79 232.26 C 45.95 230.20 49.63 227.34 53.42 224.69 C 58.81 220.42 65.32 218.08 71.56 215.38 C 73.62 214.59 75.71 213.86 77.80 213.15 C 77.48 213.54 76.84 214.32 76.53 214.72 C 70.66 216.92 64.74 219.15 59.43 222.55 C 55.07 225.50 50.95 228.82 46.37 231.45 C 43.40 233.13 40.03 234.12 37.33 236.28 C 31.12 241.47 25.37 247.18 19.67 252.92 C 17.98 248.89 16.56 244.61 16.51 240.21 C 16.77 234.70 17.78 229.26 18.93 223.87 C 18.09 224.55 17.24 225.23 16.43 225.95 C 21.62 213.42 29.27 201.83 39.02 192.39 C 37.23 199.58 31.03 204.91 30.32 212.48 C 32.38 212.82 34.99 214.79 36.76 212.79 C 39.57 210.31 41.81 207.15 45.15 205.31 C 50.46 202.41 54.52 197.83 59.49 194.46 C 75.78 182.25 94.68 174.12 113.91 167.80 C 130.54 162.03 147.75 157.39 163.30 148.98 C 175.96 142.72 188.25 135.30 198.39 125.36 C 204.06 119.93 209.78 114.20 213.08 106.96 C 207.78 109.92 203.37 114.23 197.98 117.07 C 193.92 119.20 190.33 122.39 185.70 123.25 C 193.88 117.62 202.96 113.17 210.05 106.05 Z" />
</g>
<g id="#0000002c">
<path fill="#000000" opacity="0.17" d=" M 217.51 104.79 C 218.72 105.40 219.32 106.64 219.24 107.97 C 219.34 113.23 217.16 118.13 214.72 122.66 C 209.89 133.14 203.16 142.78 194.80 150.76 C 190.59 155.47 185.27 158.94 180.63 163.18 C 180.58 163.61 180.49 164.48 180.44 164.91 C 175.68 168.10 170.75 171.02 165.76 173.83 C 162.04 172.16 158.60 174.72 155.40 176.33 C 148.27 180.27 140.55 182.91 133.05 186.00 C 130.63 187.06 128.01 187.49 125.39 187.52 C 127.31 186.36 129.22 185.14 131.33 184.36 C 146.63 179.17 161.50 172.28 174.67 162.85 C 174.44 162.28 173.98 161.14 173.76 160.57 C 179.70 156.52 185.50 152.20 190.64 147.15 C 203.21 135.89 213.06 121.14 217.51 104.79 Z" />
<path fill="#000000" opacity="0.17" d=" M 1155.93 152.73 C 1159.00 154.39 1161.48 156.88 1163.71 159.53 C 1162.23 161.05 1160.89 162.72 1159.72 164.48 C 1158.40 162.55 1157.09 160.61 1155.92 158.59 C 1155.88 156.64 1155.89 154.68 1155.93 152.73 Z" />
<path fill="#000000" opacity="0.17" d=" M 391.73 167.02 C 391.92 163.47 391.86 159.13 395.02 156.76 C 395.07 190.52 395.00 224.28 395.05 258.04 C 396.12 260.50 397.66 263.17 400.51 263.76 C 406.38 265.28 413.20 264.91 418.15 261.10 C 419.74 259.52 419.50 257.05 419.70 255.00 C 419.90 237.66 419.50 220.30 419.80 202.96 C 419.65 194.49 424.19 186.73 429.76 180.69 C 436.09 176.52 444.79 175.66 451.56 179.34 C 457.03 183.97 460.63 190.84 461.43 197.93 C 461.44 216.62 461.43 235.30 461.36 253.99 C 461.39 255.71 461.56 257.43 461.98 259.11 C 463.00 261.87 465.44 264.10 468.46 264.35 C 473.18 264.80 478.37 265.03 482.63 262.59 C 485.97 260.68 486.03 256.42 486.23 253.05 C 486.33 242.38 486.20 231.71 486.26 221.03 C 485.93 209.24 486.79 197.38 485.23 185.64 C 484.28 181.01 483.39 176.04 480.08 172.42 C 478.39 168.79 476.40 165.29 473.86 162.17 L 473.78 160.83 C 478.41 163.35 480.83 168.18 483.79 172.31 C 486.98 176.37 487.51 181.70 488.56 186.59 C 489.84 192.39 488.86 198.36 489.84 204.18 C 490.85 210.41 490.30 216.73 489.51 222.94 C 489.18 234.29 489.53 245.66 489.28 257.01 C 489.27 263.47 483.13 268.29 476.99 268.34 C 472.72 268.47 468.24 268.61 464.28 266.76 C 460.05 265.19 458.74 260.07 458.69 256.01 C 458.73 238.00 458.67 219.99 458.70 201.98 C 458.89 196.28 458.13 190.13 454.75 185.38 C 446.63 177.20 430.18 179.29 425.18 190.02 C 422.95 194.29 422.97 199.28 422.47 203.97 C 422.27 221.30 422.54 238.63 422.40 255.96 C 422.47 259.27 421.38 262.63 418.85 264.86 C 415.02 268.83 409.01 268.50 403.94 268.31 C 400.15 267.90 395.46 267.14 393.53 263.39 C 392.02 260.87 391.67 257.89 391.70 255.01 C 391.78 225.68 391.68 196.35 391.73 167.02 Z" />
<path fill="#000000" opacity="0.17" d=" M 1207.94 195.98 C 1209.02 191.89 1209.24 187.43 1211.72 183.85 C 1211.78 184.66 1211.90 186.27 1211.96 187.08 C 1208.87 200.01 1209.19 213.68 1212.51 226.54 C 1212.38 228.93 1212.32 231.40 1213.27 233.66 C 1215.62 240.09 1218.25 246.94 1223.96 251.16 C 1227.72 253.97 1230.89 257.47 1234.59 260.34 C 1248.16 267.88 1264.99 267.59 1279.31 262.33 C 1284.17 259.57 1288.88 256.31 1292.63 252.10 C 1297.06 248.88 1301.91 242.63 1298.39 237.14 C 1299.10 235.45 1299.70 233.72 1300.35 232.01 C 1302.70 234.41 1305.07 237.40 1304.26 241.02 C 1303.14 246.70 1299.69 251.67 1295.78 255.83 C 1287.91 264.02 1276.80 268.39 1265.66 269.61 C 1256.75 271.21 1247.58 269.74 1239.10 266.84 C 1226.30 262.04 1216.44 251.19 1211.42 238.63 C 1208.08 230.18 1206.42 221.04 1206.64 211.96 C 1206.63 206.61 1206.53 201.19 1207.94 195.98 Z" />
<path fill="#000000" opacity="0.17" d=" M 67.66 227.86 C 74.25 222.33 81.72 217.98 88.99 213.43 C 89.46 214.64 89.93 215.85 90.40 217.06 C 85.54 222.84 78.52 226.05 72.79 230.82 C 71.73 231.46 71.82 232.76 71.63 233.82 C 66.82 237.88 62.15 242.13 57.85 246.73 C 56.26 246.35 54.18 245.30 52.90 246.92 C 41.02 259.75 31.30 275.15 27.49 292.38 C 27.00 294.18 26.21 295.88 25.47 297.59 C 25.57 295.93 25.68 294.27 25.81 292.62 C 29.63 272.75 40.09 254.50 54.25 240.18 C 58.52 235.87 62.89 231.63 67.66 227.86 Z" />
</g>
<g id="#ff6259ff">
<path fill="#ff6259" opacity="1.00" d=" M 197.98 117.07 C 203.37 114.23 207.78 109.92 213.08 106.96 C 209.78 114.20 204.06 119.93 198.39 125.36 C 188.25 135.30 175.96 142.72 163.30 148.98 C 160.55 149.42 157.83 150.08 155.28 151.19 C 137.01 158.49 117.37 161.53 99.18 169.07 C 83.71 174.92 69.11 182.79 54.60 190.65 C 51.19 192.21 47.65 193.47 44.13 194.76 C 48.17 188.73 52.73 182.94 58.57 178.57 C 61.62 175.89 65.95 174.24 67.34 170.10 C 82.74 160.32 99.69 153.10 117.04 147.54 C 117.89 147.59 119.59 147.67 120.44 147.72 C 116.84 150.21 112.43 150.88 108.46 152.56 C 98.74 156.46 88.72 160.01 80.06 166.03 C 76.21 168.38 72.80 171.37 70.06 174.95 C 75.74 172.80 81.13 169.94 86.84 167.88 C 99.07 163.65 110.96 158.36 123.62 155.48 C 142.77 149.79 162.35 144.66 179.96 134.96 C 184.06 132.69 188.44 130.60 191.41 126.83 C 190.18 126.34 188.97 125.78 187.69 125.46 C 181.15 126.50 175.82 132.41 168.84 131.17 C 174.26 128.14 180.09 125.86 185.70 123.25 C 190.33 122.39 193.92 119.20 197.98 117.07 Z" />
</g>
<g id="#00000021">
<path fill="#000000" opacity="0.13" d=" M 1000.03 110.09 C 1002.28 111.24 1004.84 112.51 1005.75 115.07 C 1007.16 118.87 1007.71 122.95 1007.69 127.00 C 1007.71 168.99 1007.69 210.98 1007.70 252.97 C 1007.49 256.89 1007.55 261.14 1005.55 264.64 C 1000.74 272.30 987.90 271.28 983.61 263.64 C 981.72 255.57 982.42 247.24 982.32 239.03 C 982.26 204.36 982.38 169.69 982.29 135.02 C 982.06 129.11 982.66 123.20 983.52 117.36 C 983.83 115.35 985.64 114.14 986.99 112.82 C 987.00 161.22 986.89 209.62 987.04 258.01 C 988.65 260.49 990.63 263.43 993.93 263.55 C 999.06 264.16 1002.78 258.68 1002.55 254.00 C 1002.55 210.35 1002.56 166.71 1002.55 123.06 C 1002.85 120.52 1001.67 118.30 1000.03 116.46 C 1000.02 114.61 1000.00 112.76 1000.03 110.91 L 1000.03 110.09 Z" />
<path fill="#000000" opacity="0.13" d=" M 958.57 118.77 C 961.76 119.63 964.77 122.37 964.45 125.94 C 965.20 130.89 963.16 136.39 958.37 138.50 C 950.85 141.09 942.79 140.15 934.99 140.28 C 922.98 140.35 910.97 140.20 898.97 140.32 C 896.40 139.91 895.37 142.93 895.36 144.98 C 895.15 155.32 895.38 165.66 895.26 176.00 C 895.09 178.13 895.78 180.15 896.80 182.00 C 895.46 182.00 894.13 182.00 892.81 182.00 C 891.62 171.04 892.51 159.98 892.27 148.98 C 892.55 145.05 891.88 140.05 895.31 137.31 C 898.34 136.03 901.78 136.61 905.00 136.49 C 919.67 136.55 934.35 136.53 949.02 136.55 C 953.45 136.40 959.23 136.02 961.28 131.35 C 962.25 127.56 962.11 123.01 958.57 120.59 C 958.57 120.13 958.57 119.22 958.57 118.77 Z" />
</g>
<g id="#00000048">
<path fill="#000000" opacity="0.28" d=" M 53.55 111.68 C 53.64 114.05 53.74 116.41 53.87 118.78 C 50.52 121.68 47.22 124.64 44.42 128.08 C 44.13 127.62 43.55 126.69 43.26 126.22 C 36.74 132.58 31.78 140.27 26.85 147.87 C 24.64 151.26 23.52 155.46 20.16 158.01 C 26.81 139.89 38.74 123.96 53.55 111.68 Z" />
</g>
<g id="#00000069">
<path fill="#000000" opacity="0.41" d=" M 592.45 113.03 C 592.58 113.46 592.83 114.34 592.96 114.77 C 595.11 121.28 595.00 128.22 595.22 134.99 C 595.16 173.99 595.27 213.00 595.15 252.00 C 595.45 256.55 593.37 261.51 588.71 262.92 C 583.06 264.35 575.43 263.90 572.45 258.03 C 573.24 258.03 574.82 258.03 575.61 258.03 C 579.77 263.01 587.72 261.30 592.51 258.06 C 592.43 209.72 592.54 161.37 592.45 113.03 Z" />
<path fill="#000000" opacity="0.41" d=" M 1196.32 151.87 C 1196.40 152.12 1196.54 152.62 1196.61 152.88 C 1197.52 157.13 1199.85 161.71 1198.05 166.04 C 1196.17 169.76 1191.57 169.70 1188.00 169.69 C 1180.53 169.63 1172.84 172.12 1167.60 177.59 C 1161.96 183.12 1159.16 191.18 1159.39 199.00 C 1159.37 217.33 1159.46 235.67 1159.37 254.01 C 1159.67 259.48 1154.65 265.10 1148.91 263.35 C 1146.24 262.76 1144.87 260.14 1143.57 258.01 C 1147.88 258.00 1152.20 258.04 1156.53 257.99 C 1156.62 235.23 1156.34 212.46 1156.56 189.71 C 1158.71 187.82 1158.82 184.65 1160.26 182.29 C 1163.85 174.65 1171.38 169.60 1179.34 167.42 C 1184.41 166.11 1190.09 167.33 1194.72 164.41 C 1195.14 164.49 1195.98 164.64 1196.40 164.71 C 1196.31 160.43 1196.30 156.15 1196.32 151.87 Z" />
</g>
<g id="#00000035">
<path fill="#000000" opacity="0.21" d=" M 592.96 114.77 C 597.69 116.02 598.03 121.92 598.31 125.95 C 598.43 169.29 598.35 212.64 598.35 255.99 C 598.68 260.84 595.61 265.60 590.92 267.02 C 584.06 269.06 575.78 268.73 570.17 263.87 C 567.83 262.49 564.89 263.45 562.68 264.65 C 552.05 270.47 539.10 270.79 527.64 267.45 C 518.05 264.44 509.99 257.91 503.96 250.00 C 495.97 238.27 492.47 224.03 492.03 209.98 C 492.63 202.65 493.26 195.07 496.18 188.24 C 496.56 187.94 497.31 187.33 497.68 187.03 C 494.06 204.01 494.85 222.72 503.41 238.16 C 503.69 239.64 503.65 241.25 504.42 242.61 C 510.09 252.49 519.41 260.67 530.65 263.36 C 541.02 265.86 552.47 265.15 561.95 259.99 C 565.08 258.53 568.41 255.91 572.04 257.42 C 572.14 257.57 572.35 257.88 572.45 258.03 C 575.43 263.90 583.06 264.35 588.71 262.92 C 593.37 261.51 595.45 256.55 595.15 252.00 C 595.27 213.00 595.16 173.99 595.22 134.99 C 595.00 128.22 595.11 121.28 592.96 114.77 Z" />
<path fill="#000000" opacity="0.21" d=" M 649.58 166.99 C 649.67 163.73 649.87 160.06 652.35 157.62 C 652.43 191.10 652.30 224.57 652.41 258.04 C 653.64 260.47 655.41 263.09 658.37 263.43 C 662.84 263.95 667.56 264.21 671.91 262.85 C 675.79 261.39 676.04 256.56 676.24 253.05 C 676.30 236.70 676.24 220.36 676.24 204.01 C 676.07 196.99 677.52 189.61 681.90 183.95 C 688.23 176.17 699.89 173.75 708.95 177.92 C 714.75 179.93 717.14 186.08 719.19 191.33 C 719.47 213.56 719.14 235.80 719.19 258.03 C 720.29 261.41 723.27 264.07 727.00 263.68 C 731.98 263.53 738.95 265.28 741.91 259.99 C 743.96 254.94 742.99 249.32 743.18 244.01 C 743.28 227.33 742.57 210.66 742.77 193.97 C 743.02 187.45 741.59 181.02 739.27 174.96 C 739.16 175.50 738.93 176.59 738.81 177.14 C 737.18 171.32 734.44 165.75 730.31 161.29 C 731.83 161.14 733.38 161.42 734.40 162.68 C 743.11 171.81 746.04 184.77 746.38 197.03 C 746.44 216.04 746.31 235.05 746.36 254.06 C 746.27 258.28 745.15 263.09 741.39 265.54 C 737.46 268.23 732.50 267.38 728.03 267.49 C 724.32 267.53 719.99 266.29 718.13 262.80 C 716.90 260.76 716.48 258.37 716.52 256.02 C 716.58 238.32 716.52 220.63 716.57 202.93 C 716.57 197.80 716.14 192.52 714.22 187.71 C 711.54 182.06 705.00 179.42 698.99 180.24 C 692.22 179.43 685.49 183.09 682.31 189.05 C 679.86 193.97 679.35 199.60 679.38 205.02 C 679.46 220.67 679.32 236.32 679.42 251.98 C 679.41 256.76 678.99 262.78 674.48 265.57 C 670.58 268.47 665.46 267.21 660.96 267.49 C 655.06 268.09 649.33 262.98 649.59 256.99 C 649.60 226.99 649.57 196.99 649.58 166.99 Z" />
<path fill="#000000" opacity="0.21" d=" M 1074.43 213.49 C 1082.36 213.36 1090.66 210.82 1098.35 213.81 C 1098.43 219.28 1098.64 225.16 1095.74 230.03 L 1095.42 229.92 C 1094.82 226.20 1095.19 222.36 1094.32 218.70 C 1091.54 216.57 1087.83 217.40 1084.62 217.60 C 1074.30 219.01 1063.19 217.67 1053.67 222.68 C 1047.92 225.40 1045.87 233.01 1048.30 238.63 C 1049.85 241.60 1052.23 244.03 1054.36 246.60 C 1049.87 245.26 1046.15 242.15 1043.41 238.43 C 1043.21 233.11 1043.29 227.31 1047.06 223.10 C 1053.66 215.12 1064.76 213.96 1074.43 213.49 Z" />
</g>
<g id="#0000001f">
<path fill="#000000" opacity="0.12" d=" M 628.64 115.61 C 631.41 114.47 633.97 116.40 636.07 117.99 C 643.06 123.95 644.05 135.28 638.67 142.61 C 636.56 145.20 633.94 147.35 631.85 149.96 C 634.29 151.47 637.20 152.75 638.55 155.47 C 640.15 158.72 640.86 162.35 640.86 165.96 C 640.87 195.30 640.80 224.64 640.89 253.98 C 641.27 257.93 640.14 261.80 637.95 265.08 C 636.23 268.36 632.27 269.27 628.89 269.68 C 623.42 270.14 617.56 270.10 612.64 267.36 C 608.81 265.01 608.19 260.11 608.15 256.01 C 608.13 228.00 608.18 199.99 608.13 171.98 C 608.11 166.73 607.71 161.08 610.36 156.33 C 610.87 155.93 611.88 155.13 612.38 154.73 C 612.42 189.17 612.35 223.61 612.41 258.05 C 613.30 261.13 615.48 264.27 619.01 264.38 C 623.99 264.55 629.96 265.69 633.99 261.97 C 636.91 259.58 637.31 255.56 637.35 252.05 C 637.22 224.35 637.35 196.65 637.30 168.95 C 636.97 164.34 637.35 158.90 633.60 155.51 C 633.59 154.47 633.59 153.44 633.60 152.41 C 628.16 152.45 622.73 152.43 617.29 152.44 C 617.20 151.36 618.21 149.78 616.99 149.05 C 614.48 146.87 611.14 145.46 609.59 142.34 C 606.22 137.14 605.62 130.10 608.58 124.59 C 609.30 123.28 609.93 121.63 611.58 121.26 C 610.53 123.85 610.39 126.66 610.47 129.43 C 609.60 134.15 610.65 139.30 614.53 142.43 C 620.60 148.74 631.98 146.82 636.53 139.65 C 639.95 134.25 640.09 125.96 634.73 121.72 C 633.12 119.30 631.18 117.07 628.64 115.61 Z" />
<path fill="#000000" opacity="0.12" d=" M 155.40 176.33 C 158.60 174.72 162.04 172.16 165.76 173.83 C 160.85 176.82 155.44 178.85 150.42 181.61 C 150.26 181.98 149.94 182.70 149.78 183.07 C 151.52 184.24 153.45 185.10 155.27 186.13 C 155.29 187.82 154.08 189.93 155.70 191.24 C 159.18 194.83 162.64 198.44 165.64 202.46 C 166.04 208.09 165.10 214.05 161.68 218.69 C 161.48 215.24 161.93 211.77 161.61 208.32 C 160.86 203.67 158.36 199.27 154.56 196.44 C 152.80 194.91 150.61 193.72 149.42 191.65 C 148.78 189.13 148.83 186.50 148.65 183.93 C 146.44 184.09 144.19 184.27 142.13 185.15 C 134.12 188.45 125.93 191.29 117.63 193.74 C 102.89 197.85 88.37 203.29 75.36 211.46 C 73.73 212.37 72.61 213.88 71.56 215.38 C 65.32 218.08 58.81 220.42 53.42 224.69 C 53.84 221.83 56.40 220.17 58.44 218.46 C 64.53 213.78 70.65 209.02 77.61 205.70 C 87.36 200.67 97.32 195.94 107.89 192.94 C 113.78 191.33 119.54 189.29 125.39 187.52 C 128.01 187.49 130.63 187.06 133.05 186.00 C 140.55 182.91 148.27 180.27 155.40 176.33 Z" />
</g>
<g id="#00000074">
<path fill="#000000" opacity="0.45" d=" M 1000.03 116.46 C 1001.67 118.30 1002.85 120.52 1002.55 123.06 C 1002.56 166.71 1002.55 210.35 1002.55 254.00 C 1002.78 258.68 999.06 264.16 993.93 263.55 C 990.63 263.43 988.65 260.49 987.04 258.01 C 991.36 258.01 995.68 258.04 1000.00 258.01 C 1000.02 210.83 999.95 163.65 1000.03 116.46 Z" />
</g>
<g id="#0000002a">
<path fill="#000000" opacity="0.16" d=" M 567.88 127.99 C 568.30 124.43 568.18 120.15 571.30 117.72 C 571.36 133.21 571.15 148.70 571.16 164.19 C 567.96 160.85 564.39 157.84 560.35 155.57 C 562.30 155.36 564.17 155.95 565.98 156.65 C 566.54 155.77 567.67 155.10 567.64 153.94 C 568.06 145.30 567.59 136.64 567.88 127.99 Z" />
<path fill="#000000" opacity="0.16" d=" M 1140.16 164.00 C 1140.22 160.00 1142.65 156.62 1143.60 152.82 C 1143.47 187.88 1143.53 222.95 1143.57 258.01 C 1144.87 260.14 1146.24 262.76 1148.91 263.35 C 1154.65 265.10 1159.67 259.48 1159.37 254.01 C 1159.46 235.67 1159.37 217.33 1159.39 199.00 C 1159.16 191.18 1161.96 183.12 1167.60 177.59 C 1172.84 172.12 1180.53 169.63 1188.00 169.69 C 1191.57 169.70 1196.17 169.76 1198.05 166.04 C 1199.85 161.71 1197.52 157.13 1196.61 152.88 C 1205.17 156.04 1204.72 170.10 1196.60 173.50 C 1189.42 175.52 1181.33 173.57 1174.69 177.59 C 1169.80 180.73 1165.43 185.42 1164.24 191.27 C 1162.79 196.37 1163.22 201.70 1163.18 206.93 C 1163.14 221.94 1163.21 236.94 1163.17 251.95 C 1163.02 255.27 1163.06 258.71 1161.94 261.88 C 1160.16 265.16 1157.07 268.19 1153.14 268.37 C 1149.05 268.72 1144.22 267.77 1141.77 264.17 C 1139.93 261.47 1140.20 258.05 1140.12 254.95 C 1140.28 247.30 1139.62 239.65 1139.83 232.00 C 1139.60 224.98 1140.48 217.98 1139.93 210.98 C 1139.53 204.01 1140.35 197.04 1139.86 190.07 C 1139.92 181.38 1139.57 172.68 1140.16 164.00 Z" />
</g>
<g id="#00000023">
<path fill="#000000" opacity="0.14" d=" M 870.30 132.08 C 870.55 127.95 870.73 123.35 873.47 120.01 C 873.94 121.38 874.52 122.74 874.81 124.18 C 874.84 168.74 874.78 213.30 874.84 257.86 L 875.31 257.91 C 875.57 259.41 875.28 261.25 876.59 262.36 C 880.29 266.08 886.88 264.93 890.20 261.27 C 892.31 257.95 892.03 253.77 892.24 250.00 C 892.15 237.00 892.10 224.01 892.19 211.01 C 892.36 207.92 891.98 203.77 895.00 201.88 C 898.52 200.69 902.32 200.89 906.00 200.77 C 920.00 200.73 934.00 200.92 947.99 200.68 C 954.93 200.88 958.43 190.54 952.93 186.43 C 952.92 184.92 952.90 183.42 952.92 181.92 C 956.94 182.33 959.46 186.17 959.71 189.95 C 959.98 193.87 959.88 198.18 957.30 201.39 C 954.85 205.06 950.09 205.69 946.04 205.76 C 931.36 205.68 916.68 205.81 902.01 205.74 C 898.67 205.53 895.63 208.75 895.80 212.04 C 895.56 227.36 895.95 242.69 895.67 258.01 C 895.62 264.26 890.24 269.62 884.01 269.71 C 879.31 269.63 873.81 268.07 871.59 263.54 C 870.62 260.78 870.34 257.84 870.28 254.94 C 870.35 213.99 870.28 173.03 870.30 132.08 Z" />
</g>
<g id="#00000058">
<path fill="#000000" opacity="0.35" d=" M 958.57 120.59 C 962.11 123.01 962.25 127.56 961.28 131.35 C 959.23 136.02 953.45 136.40 949.02 136.55 C 934.35 136.53 919.67 136.55 905.00 136.49 C 901.78 136.61 898.34 136.03 895.31 137.31 C 891.88 140.05 892.55 145.05 892.27 148.98 C 892.51 159.98 891.62 171.04 892.81 182.00 C 891.30 182.00 889.81 181.99 888.33 181.98 C 888.34 164.38 888.34 146.79 888.33 129.20 L 888.51 129.20 C 888.48 131.81 888.63 134.42 888.93 137.02 C 891.08 134.73 893.56 132.22 897.00 132.48 C 914.69 132.37 932.38 132.49 950.07 132.46 C 953.22 132.58 955.92 130.79 958.51 129.24 C 958.50 126.35 958.52 123.47 958.57 120.59 Z" />
<path fill="#000000" opacity="0.35" d=" M 952.93 186.43 C 958.43 190.54 954.93 200.88 947.99 200.68 C 934.00 200.92 920.00 200.73 906.00 200.77 C 902.32 200.89 898.52 200.69 895.00 201.88 C 891.98 203.77 892.36 207.92 892.19 211.01 C 892.10 224.01 892.15 237.00 892.24 250.00 C 892.03 253.77 892.31 257.95 890.20 261.27 C 886.88 264.93 880.29 266.08 876.59 262.36 C 875.28 261.25 875.57 259.41 875.31 257.91 C 875.86 257.96 876.98 258.05 877.54 258.09 C 879.24 259.22 880.77 261.10 883.01 261.03 C 885.03 260.82 886.99 259.88 888.45 258.45 C 889.26 256.43 889.16 254.18 889.25 252.05 C 889.21 237.36 889.25 222.67 889.21 207.99 C 889.22 204.88 889.43 201.27 892.01 199.12 C 894.61 197.30 897.95 197.42 900.99 197.34 C 915.34 197.43 929.68 197.35 944.03 197.39 C 947.34 197.70 950.25 196.10 952.69 194.01 L 952.97 193.83 C 952.91 191.36 952.90 188.89 952.93 186.43 Z" />
</g>
<g id="#0000004d">
<path fill="#000000" opacity="0.30" d=" M 634.73 121.72 C 640.09 125.96 639.95 134.25 636.53 139.65 C 631.98 146.82 620.60 148.74 614.53 142.43 C 610.65 139.30 609.60 134.15 610.47 129.43 C 611.40 132.12 612.91 134.59 614.91 136.62 C 617.16 144.84 629.99 144.71 634.06 138.02 C 636.03 135.58 635.69 132.36 635.58 129.44 C 635.59 126.84 635.47 124.22 634.73 121.72 Z" />
</g>
<g id="#ff796fff">
<path fill="#ff796f" opacity="1.00" d=" M 168.84 131.17 C 175.82 132.41 181.15 126.50 187.69 125.46 C 188.97 125.78 190.18 126.34 191.41 126.83 C 188.44 130.60 184.06 132.69 179.96 134.96 C 162.35 144.66 142.77 149.79 123.62 155.48 C 110.96 158.36 99.07 163.65 86.84 167.88 C 81.13 169.94 75.74 172.80 70.06 174.95 C 72.80 171.37 76.21 168.38 80.06 166.03 C 88.72 160.01 98.74 156.46 108.46 152.56 C 112.43 150.88 116.84 150.21 120.44 147.72 C 119.59 147.67 117.89 147.59 117.04 147.54 C 122.68 145.75 128.41 144.24 134.07 142.51 C 145.52 139.18 156.95 135.69 167.98 131.12 C 168.20 131.13 168.63 131.15 168.84 131.17 Z" />
</g>
<g id="#00000030">
<path fill="#000000" opacity="0.19" d=" M 43.26 126.22 C 43.55 126.69 44.13 127.62 44.42 128.08 C 40.47 132.08 37.18 136.65 34.32 141.47 C 28.04 151.18 23.89 162.10 20.73 173.18 C 20.11 172.28 19.49 171.39 18.87 170.49 C 18.00 170.70 17.13 170.91 16.25 171.12 C 17.13 166.64 18.35 162.21 20.16 158.01 C 23.52 155.46 24.64 151.26 26.85 147.87 C 31.78 140.27 36.74 132.58 43.26 126.22 Z" />
<path fill="#000000" opacity="0.19" d=" M 1056.02 172.16 C 1060.21 169.66 1065.10 168.34 1069.99 168.35 C 1075.58 168.35 1081.48 167.81 1086.68 170.32 C 1091.16 172.05 1094.21 175.90 1097.60 179.11 C 1098.73 184.65 1098.34 190.32 1098.31 195.93 C 1096.56 196.06 1094.83 196.19 1093.10 196.32 C 1098.04 187.45 1090.37 175.72 1080.94 174.18 C 1073.11 173.01 1064.52 173.13 1057.59 177.45 C 1053.55 179.77 1052.00 184.68 1047.97 187.00 C 1043.48 189.76 1037.22 189.90 1032.72 187.17 C 1029.24 185.16 1030.13 180.73 1030.44 177.40 C 1030.79 176.17 1030.97 174.03 1032.82 174.28 C 1032.37 175.84 1031.99 177.43 1031.63 179.01 C 1032.38 179.00 1033.89 178.99 1034.65 178.98 C 1034.98 180.16 1035.32 181.34 1035.67 182.52 C 1038.69 183.86 1042.42 184.29 1045.29 182.30 C 1049.36 179.46 1051.73 174.75 1056.02 172.16 Z" />
</g>
<g id="#0000008a">
<path fill="#000000" opacity="0.54" d=" M 888.51 129.20 C 911.84 129.22 935.18 129.13 958.51 129.24 C 955.92 130.79 953.22 132.58 950.07 132.46 C 932.38 132.49 914.69 132.37 897.00 132.48 C 893.56 132.22 891.08 134.73 888.93 137.02 C 888.63 134.42 888.48 131.81 888.51 129.20 Z" />
<path fill="#000000" opacity="0.54" d=" M 265.39 172.52 C 270.59 170.49 276.34 170.64 281.78 171.49 C 279.11 174.24 275.10 173.20 271.71 173.88 C 264.36 175.03 258.44 180.40 255.32 186.98 L 254.74 185.96 C 255.91 180.14 259.92 174.91 265.39 172.52 Z" />
</g>
<g id="#0000007f">
<path fill="#000000" opacity="0.50" d=" M 626.87 138.73 C 631.18 137.42 634.11 133.55 635.58 129.44 C 635.69 132.36 636.03 135.58 634.06 138.02 C 629.99 144.71 617.16 144.84 614.91 136.62 C 618.35 139.02 622.80 140.09 626.87 138.73 Z" />
<path fill="#000000" opacity="0.50" d=" M 524.78 178.81 C 532.62 168.31 549.25 166.60 559.39 174.68 C 563.16 177.54 565.82 181.63 567.70 185.92 C 564.44 183.66 562.37 180.04 558.83 178.15 C 551.32 173.51 541.31 173.19 533.64 177.60 C 526.69 181.60 522.35 188.98 520.42 196.59 C 518.59 203.12 518.80 209.94 518.30 216.64 C 515.78 203.95 516.84 189.51 524.78 178.81 Z" />
<path fill="#000000" opacity="0.50" d=" M 1070.93 208.55 C 1080.05 207.97 1089.15 207.17 1098.28 206.70 C 1098.27 209.07 1098.29 211.44 1098.35 213.81 C 1090.66 210.82 1082.36 213.36 1074.43 213.49 C 1064.76 213.96 1053.66 215.12 1047.06 223.10 C 1043.29 227.31 1043.21 233.11 1043.41 238.43 C 1039.48 231.65 1039.81 222.09 1045.52 216.40 C 1052.23 209.95 1062.11 209.16 1070.93 208.55 Z" />
</g>
<g id="#ce6f19ff">
<path fill="#ce6f19" opacity="1.00" d=" M 20.73 173.18 C 23.89 162.10 28.04 151.18 34.32 141.47 C 33.91 143.52 33.44 145.56 32.58 147.47 C 26.88 160.97 23.51 175.38 21.91 189.92 C 20.93 196.36 16.29 201.98 16.60 208.61 L 16.61 209.34 C 16.13 209.59 15.16 210.08 14.67 210.33 C 15.32 197.79 17.63 185.34 20.73 173.18 Z" />
</g>
<g id="#ff6e64ff">
<path fill="#ff6e64" opacity="1.00" d=" M 177.02 156.08 C 181.76 153.39 185.34 148.82 190.64 147.15 C 185.50 152.20 179.70 156.52 173.76 160.57 C 161.08 169.10 147.12 175.55 132.85 180.93 C 115.31 187.23 96.79 191.23 80.44 200.49 C 70.35 205.60 60.85 211.99 52.60 219.76 C 52.86 218.76 53.04 217.67 53.82 216.92 C 59.64 210.48 67.08 205.82 74.48 201.41 C 87.09 193.99 100.83 188.68 114.84 184.58 C 136.76 178.07 158.21 169.25 177.02 156.08 Z" />
<path fill="#ff6e64" opacity="1.00" d=" M 76.53 214.72 C 78.31 214.44 80.10 214.23 81.89 214.03 C 81.30 214.62 80.70 215.20 80.09 215.78 C 73.44 218.60 67.19 222.27 61.10 226.15 C 53.91 231.15 47.66 237.37 40.45 242.36 C 34.56 246.48 29.43 251.58 23.50 255.64 C 22.21 254.75 20.92 253.87 19.67 252.92 C 25.37 247.18 31.12 241.47 37.33 236.28 C 40.03 234.12 43.40 233.13 46.37 231.45 C 50.95 228.82 55.07 225.50 59.43 222.55 C 64.74 219.15 70.66 216.92 76.53 214.72 Z" />
</g>
<g id="#ff554cff">
<path fill="#ff554c" opacity="1.00" d=" M 155.28 151.19 C 157.83 150.08 160.55 149.42 163.30 148.98 C 147.75 157.39 130.54 162.03 113.91 167.80 C 94.68 174.12 75.78 182.25 59.49 194.46 C 54.52 197.83 50.46 202.41 45.15 205.31 C 41.81 207.15 39.57 210.31 36.76 212.79 C 34.99 214.79 32.38 212.82 30.32 212.48 C 31.03 204.91 37.23 199.58 39.02 192.39 C 47.49 183.83 56.96 176.20 67.34 170.10 C 65.95 174.24 61.62 175.89 58.57 178.57 C 52.73 182.94 48.17 188.73 44.13 194.76 C 47.65 193.47 51.19 192.21 54.60 190.65 C 69.11 182.79 83.71 174.92 99.18 169.07 C 117.37 161.53 137.01 158.49 155.28 151.19 Z" />
</g>
<g id="#00000022">
<path fill="#000000" opacity="0.13" d=" M 800.70 150.84 C 808.76 148.88 816.90 152.61 824.09 155.99 C 826.72 157.10 828.85 154.47 829.50 152.19 L 829.49 152.41 C 829.46 156.59 829.39 160.78 829.39 164.96 C 822.12 156.74 811.73 151.35 800.70 150.84 Z" />
</g>
<g id="#00000041">
<path fill="#000000" opacity="0.25" d=" M 672.51 152.46 L 672.51 152.17 C 674.11 154.11 675.95 155.82 677.91 157.41 C 678.62 157.28 680.03 157.04 680.73 156.92 C 677.74 158.90 675.05 161.29 672.62 163.92 C 672.72 160.10 672.63 156.28 672.51 152.46 Z" />
<path fill="#000000" opacity="0.25" d=" M 787.35 179.38 C 793.71 173.84 802.96 173.38 810.83 175.21 C 815.41 176.11 818.31 180.17 822.58 181.67 L 822.76 181.74 C 828.54 190.62 829.25 201.70 828.28 211.96 C 827.73 215.59 827.15 219.32 825.41 222.61 C 825.27 217.39 826.57 212.22 825.88 207.02 C 825.26 199.32 823.21 191.10 817.37 185.65 C 810.83 178.45 798.87 177.37 790.98 182.93 C 784.55 187.36 781.67 195.20 780.55 202.63 C 779.93 210.45 780.02 218.59 782.97 225.99 C 784.42 229.80 787.43 232.79 788.72 236.68 C 780.76 232.14 776.18 222.92 775.33 214.03 C 775.80 208.64 775.50 203.14 776.90 197.87 C 778.65 190.95 781.62 183.93 787.35 179.38 Z" />
</g>
<g id="#00000020">
<path fill="#000000" opacity="0.13" d=" M 849.85 152.30 C 854.50 152.99 856.41 157.88 856.73 162.02 C 857.19 170.02 857.17 178.04 856.92 186.05 C 856.72 211.69 857.46 237.33 856.81 262.97 C 856.11 274.20 851.87 285.74 843.24 293.28 C 837.30 300.06 828.70 303.90 820.14 306.15 C 811.68 308.63 802.76 307.84 794.08 307.57 C 782.96 305.95 771.93 301.19 764.26 292.77 C 759.33 288.30 756.11 282.24 754.38 275.87 C 753.95 272.09 753.36 266.92 757.34 264.77 C 757.70 266.39 758.10 268.00 758.49 269.62 C 757.55 277.11 762.08 283.77 766.89 289.03 C 777.64 300.06 793.99 304.16 809.00 302.74 C 821.20 301.81 833.61 297.25 841.85 287.89 C 850.56 279.83 853.12 267.46 853.34 256.06 C 853.33 228.06 853.29 200.05 853.37 172.04 C 853.22 166.77 854.08 160.51 849.84 156.52 C 849.83 155.11 849.83 153.70 849.85 152.30 Z" />
</g>
<g id="#00000036">
<path fill="#000000" opacity="0.21" d=" M 252.99 153.04 C 255.46 154.04 257.95 155.18 260.67 155.21 C 257.72 157.08 255.31 159.63 253.02 162.25 C 253.04 159.18 253.01 156.11 252.99 153.04 Z" />
</g>
<g id="#00000063">
<path fill="#000000" opacity="0.39" d=" M 415.16 152.45 C 415.71 155.42 417.13 158.14 420.01 159.41 C 418.26 160.84 416.70 162.47 415.19 164.14 C 415.30 160.25 415.26 156.35 415.16 152.45 Z" />
<path fill="#000000" opacity="0.39" d=" M 480.08 172.42 C 483.39 176.04 484.28 181.01 485.23 185.64 C 486.79 197.38 485.93 209.24 486.26 221.03 C 486.20 231.71 486.33 242.38 486.23 253.05 C 486.03 256.42 485.97 260.68 482.63 262.59 C 478.37 265.03 473.18 264.80 468.46 264.35 C 465.44 264.10 463.00 261.87 461.98 259.11 L 461.96 258.01 C 468.97 258.07 475.99 258.07 483.01 258.03 C 483.02 235.70 483.02 213.37 483.01 191.04 C 483.07 184.72 482.09 178.42 480.08 172.42 Z" />
</g>
<g id="#00000060">
<path fill="#000000" opacity="0.38" d=" M 284.93 154.66 C 288.78 159.80 289.10 166.84 287.49 172.87 C 286.62 176.02 283.21 177.83 280.08 177.56 C 273.80 177.45 266.88 178.67 262.47 183.54 C 258.98 187.84 257.37 193.49 257.47 198.99 C 257.57 217.00 257.44 235.02 257.58 253.04 C 257.67 256.99 256.78 261.90 252.69 263.60 C 248.72 265.21 244.26 264.59 240.07 264.55 C 235.67 264.59 232.04 260.32 232.46 256.00 C 232.51 223.83 232.26 191.65 232.61 159.48 L 232.84 160.32 C 233.04 192.88 232.87 225.44 232.93 258.01 C 234.16 258.02 235.39 258.04 236.62 258.05 C 241.03 261.69 247.99 261.53 252.47 258.09 C 252.86 258.07 253.62 258.02 254.00 257.99 C 254.04 237.65 254.02 217.32 253.93 196.98 C 253.90 193.29 253.95 189.57 254.74 185.96 L 255.32 186.98 C 258.44 180.40 264.36 175.03 271.71 173.88 C 275.10 173.20 279.11 174.24 281.78 171.49 C 282.83 171.66 283.90 171.83 284.96 172.02 C 284.90 166.23 284.87 160.44 284.93 154.66 Z" />
</g>
<g id="#0000005a">
<path fill="#000000" opacity="0.35" d=" M 633.60 155.51 C 637.35 158.90 636.97 164.34 637.30 168.95 C 637.35 196.65 637.22 224.35 637.35 252.05 C 637.31 255.56 636.91 259.58 633.99 261.97 C 629.96 265.69 623.99 264.55 619.01 264.38 C 615.48 264.27 613.30 261.13 612.41 258.05 C 613.20 258.05 614.77 258.04 615.56 258.04 C 620.14 263.09 628.51 262.32 633.35 258.03 L 633.63 257.87 C 633.54 223.75 633.58 189.63 633.60 155.51 Z" />
<path fill="#000000" opacity="0.35" d=" M 1213.27 233.66 C 1212.32 231.40 1212.38 228.93 1212.51 226.54 C 1215.15 234.63 1219.35 242.28 1225.43 248.30 C 1226.22 251.59 1229.47 253.20 1231.91 255.18 C 1238.44 260.31 1246.78 262.52 1254.96 263.09 C 1264.45 263.73 1274.17 262.03 1282.69 257.73 C 1286.14 256.07 1288.83 253.07 1292.63 252.10 C 1288.88 256.31 1284.17 259.57 1279.31 262.33 C 1264.99 267.59 1248.16 267.88 1234.59 260.34 C 1230.89 257.47 1227.72 253.97 1223.96 251.16 C 1218.25 246.94 1215.62 240.09 1213.27 233.66 Z" />
</g>
<g id="#0000005e">
<path fill="#000000" opacity="0.37" d=" M 849.84 156.52 C 854.08 160.51 853.22 166.77 853.37 172.04 C 853.29 200.05 853.33 228.06 853.34 256.06 C 853.12 267.46 850.56 279.83 841.85 287.89 C 833.61 297.25 821.20 301.81 809.00 302.74 C 793.99 304.16 777.64 300.06 766.89 289.03 C 762.08 283.77 757.55 277.11 758.49 269.62 C 761.86 279.90 770.23 287.74 779.93 292.10 C 780.99 293.35 781.95 294.88 783.61 295.43 C 795.84 300.57 809.84 300.35 822.38 296.39 C 832.33 293.20 841.04 286.06 845.75 276.69 C 846.69 275.04 846.38 273.07 846.54 271.26 C 850.73 261.01 849.57 249.82 849.70 239.04 C 849.72 211.53 849.75 184.02 849.84 156.52 Z" />
<path fill="#000000" opacity="0.37" d=" M 756.49 228.53 C 759.90 237.95 765.89 246.43 774.10 252.26 C 776.62 256.99 782.14 258.64 786.90 260.20 C 797.64 263.09 809.82 262.51 819.42 256.46 C 822.21 254.61 825.35 253.38 828.64 252.71 C 828.65 254.74 828.57 256.78 828.41 258.81 C 824.79 256.18 820.99 259.13 817.63 260.66 C 806.35 266.31 792.81 265.95 781.11 261.86 C 773.54 257.81 766.57 252.23 762.14 244.76 C 759.32 239.79 755.75 234.53 756.49 228.53 Z" />
<path fill="#000000" opacity="0.37" d=" M 137.99 264.98 C 153.85 265.21 170.02 262.23 183.94 254.37 C 181.41 258.68 176.14 259.88 171.93 261.95 C 162.02 265.34 151.53 267.72 140.99 267.33 C 113.66 267.35 86.33 267.26 59.00 267.36 C 56.77 267.48 54.54 267.05 53.23 265.06 C 81.48 264.90 109.73 265.01 137.99 264.98 Z" />
</g>
<g id="#00000033">
<path fill="#000000" opacity="0.20" d=" M 1281.28 157.61 C 1283.62 156.78 1285.41 158.64 1287.17 159.84 C 1295.50 165.43 1300.96 174.42 1304.39 183.68 C 1306.91 191.62 1308.43 200.02 1307.60 208.37 C 1307.23 212.17 1305.01 215.93 1301.38 217.41 C 1295.49 219.50 1289.15 219.36 1283.00 219.25 C 1270.99 219.27 1258.98 219.25 1246.97 219.26 C 1241.92 219.19 1236.70 218.47 1231.76 219.77 C 1229.48 222.25 1230.66 225.84 1231.58 228.64 C 1233.19 232.37 1235.40 235.84 1237.77 239.14 C 1239.97 242.27 1244.26 243.12 1246.11 246.55 C 1237.82 243.99 1231.08 237.50 1227.52 229.67 C 1227.45 225.92 1226.19 222.01 1227.39 218.35 C 1228.72 214.95 1232.86 214.79 1235.97 214.73 C 1255.30 214.77 1274.63 214.74 1293.96 214.76 C 1297.27 214.73 1301.35 214.36 1303.24 211.19 C 1305.55 206.81 1304.38 201.65 1303.87 196.98 C 1303.08 193.18 1303.16 188.73 1300.14 185.87 C 1297.42 174.64 1291.19 163.92 1281.28 157.61 Z" />
</g>
<g id="#0000002f">
<path fill="#000000" opacity="0.18" d=" M 364.72 159.04 C 367.98 158.87 370.58 161.10 372.77 163.23 C 376.77 167.55 380.03 172.65 381.67 178.35 C 383.65 184.70 383.72 191.42 383.78 198.01 C 383.77 216.36 383.76 234.71 383.78 253.06 C 383.84 257.28 383.12 261.97 380.00 265.06 C 375.03 268.94 368.21 268.86 362.31 267.70 C 359.04 267.12 356.52 264.83 353.63 263.40 C 351.27 262.72 349.03 264.00 346.98 265.01 C 330.77 273.70 308.61 270.66 296.18 256.80 C 288.49 248.50 286.27 236.23 288.31 225.35 C 288.91 223.00 289.11 220.07 291.59 218.88 C 289.95 225.65 290.35 232.79 292.50 239.41 C 292.28 245.97 296.25 251.79 300.83 256.13 C 311.69 266.19 328.42 267.98 342.00 263.02 C 346.21 261.66 349.67 258.39 354.04 257.58 C 357.68 258.41 359.22 263.19 363.12 263.55 C 366.68 263.89 370.29 263.88 373.85 263.55 C 376.59 263.45 378.84 261.21 379.52 258.65 C 380.62 254.52 380.33 250.20 380.34 245.97 C 380.28 228.31 380.36 210.64 380.31 192.98 C 380.12 189.00 380.38 184.48 377.32 181.43 C 376.42 172.62 371.89 164.30 364.72 159.04 Z" />
</g>
<g id="#0303036a">
<path fill="#030303" opacity="0.42" d=" M 1155.92 158.59 C 1157.09 160.61 1158.40 162.55 1159.72 164.48 C 1158.57 166.57 1157.77 168.88 1156.07 170.61 C 1155.78 166.61 1155.94 162.60 1155.92 158.59 Z" />
</g>
<g id="#00000025">
<path fill="#000000" opacity="0.15" d=" M 1100.69 159.76 C 1104.29 159.30 1106.92 162.45 1109.28 164.71 C 1116.63 172.93 1118.03 184.41 1118.20 194.99 C 1118.17 214.32 1118.17 233.66 1118.20 252.99 C 1118.03 257.28 1117.88 262.26 1114.38 265.31 C 1111.43 268.80 1106.24 269.44 1102.11 267.93 C 1098.68 267.01 1096.82 263.67 1093.86 261.99 C 1092.23 261.57 1090.79 262.72 1089.44 263.42 C 1074.70 272.98 1054.31 273.18 1039.55 263.55 C 1030.94 259.06 1026.06 249.59 1024.48 240.33 C 1022.81 232.78 1024.81 224.89 1028.11 218.07 C 1028.52 217.85 1029.35 217.43 1029.76 217.21 C 1027.82 222.10 1027.36 227.41 1027.64 232.62 C 1026.23 242.42 1030.92 252.39 1038.49 258.52 C 1053.51 269.89 1076.12 269.26 1090.95 257.88 C 1092.52 256.79 1094.26 256.00 1096.01 255.20 C 1097.57 257.85 1098.70 260.86 1100.88 263.11 C 1104.44 265.49 1109.97 265.36 1112.76 261.80 C 1115.05 259.48 1114.71 256.00 1114.83 253.01 C 1114.75 235.32 1114.80 217.63 1114.77 199.94 C 1114.69 191.54 1115.31 182.83 1112.03 174.89 C 1111.44 172.80 1109.80 171.35 1108.28 169.96 C 1106.30 166.18 1103.95 162.55 1100.69 159.76 Z" />
</g>
<g id="#0000007c">
<path fill="#000000" opacity="0.49" d=" M 1058.07 164.95 C 1066.90 161.84 1077.00 161.56 1085.79 165.01 C 1091.83 167.33 1096.22 172.85 1097.60 179.11 C 1094.21 175.90 1091.16 172.05 1086.68 170.32 C 1081.48 167.81 1075.58 168.35 1069.99 168.35 C 1065.10 168.34 1060.21 169.66 1056.02 172.16 C 1051.73 174.75 1049.36 179.46 1045.29 182.30 C 1042.42 184.29 1038.69 183.86 1035.67 182.52 C 1035.32 181.34 1034.98 180.16 1034.65 178.98 C 1037.99 178.95 1041.35 178.92 1044.71 178.91 C 1046.45 172.34 1051.70 167.15 1058.07 164.95 Z" />
</g>
<g id="#0000007d">
<path fill="#000000" opacity="0.49" d=" M 1231.74 173.78 C 1242.63 160.02 1265.72 158.37 1278.23 170.77 C 1281.57 174.01 1284.13 178.04 1285.60 182.45 C 1281.37 178.33 1277.78 173.32 1272.31 170.70 C 1265.10 167.28 1256.61 166.58 1248.94 168.87 C 1235.99 172.25 1227.00 185.04 1226.04 198.08 C 1225.30 198.08 1223.82 198.09 1223.07 198.09 C 1223.49 189.36 1226.37 180.73 1231.74 173.78 Z" />
</g>
<g id="#0000008b">
<path fill="#000000" opacity="0.55" d=" M 1171.52 166.67 C 1178.58 162.85 1187.02 162.99 1194.72 164.41 C 1190.09 167.33 1184.41 166.11 1179.34 167.42 C 1171.38 169.60 1163.85 174.65 1160.26 182.29 C 1158.82 184.65 1158.71 187.82 1156.56 189.71 C 1157.06 180.11 1162.95 171.03 1171.52 166.67 Z" />
<path fill="#000000" opacity="0.55" d=" M 818.88 294.11 C 830.85 290.99 841.41 282.59 846.54 271.26 C 846.38 273.07 846.69 275.04 845.75 276.69 C 841.04 286.06 832.33 293.20 822.38 296.39 C 809.84 300.35 795.84 300.57 783.61 295.43 C 781.95 294.88 780.99 293.35 779.93 292.10 C 792.22 297.07 806.12 297.39 818.88 294.11 Z" />
</g>
<g id="#00000037">
<path fill="#000000" opacity="0.22" d=" M 1248.94 168.87 C 1256.61 166.58 1265.10 167.28 1272.31 170.70 C 1277.78 173.32 1281.37 178.33 1285.60 182.45 C 1287.86 187.33 1288.33 192.80 1288.58 198.11 C 1286.79 198.09 1285.04 198.09 1283.29 198.10 C 1283.58 196.43 1284.43 194.76 1284.06 193.06 C 1281.83 185.06 1276.37 177.53 1268.41 174.54 C 1261.71 171.87 1254.12 172.13 1247.36 174.42 C 1239.58 177.44 1233.62 184.41 1231.31 192.36 C 1230.70 194.25 1231.33 196.20 1231.63 198.09 C 1229.75 198.08 1227.89 198.08 1226.04 198.08 C 1227.00 185.04 1235.99 172.25 1248.94 168.87 Z" />
</g>
<g id="#00000082">
<path fill="#000000" opacity="0.51" d=" M 322.76 172.81 C 329.14 169.24 336.96 168.97 343.95 170.61 C 349.26 171.84 353.74 175.79 355.48 180.99 C 352.30 178.89 349.34 176.29 345.63 175.19 C 338.25 172.81 329.75 173.95 323.35 178.35 C 319.18 181.17 317.81 186.78 313.39 189.25 C 308.85 190.29 304.14 189.74 299.54 189.49 C 298.62 188.30 297.70 187.11 296.78 185.93 C 302.66 185.88 308.54 185.89 314.42 185.85 C 315.55 180.72 318.02 175.50 322.76 172.81 Z" />
<path fill="#000000" opacity="0.51" d=" M 1092.04 248.00 C 1094.70 245.47 1096.04 241.87 1098.85 239.48 C 1099.04 243.14 1098.97 246.80 1098.99 250.46 C 1097.64 250.48 1096.15 250.06 1095.01 250.95 C 1090.42 253.98 1086.52 258.09 1081.36 260.21 C 1070.47 264.48 1057.79 264.90 1047.06 259.92 C 1043.11 257.91 1038.74 255.61 1037.11 251.19 C 1052.79 263.65 1078.07 262.58 1092.04 248.00 Z" />
</g>
<g id="#00000089">
<path fill="#000000" opacity="0.54" d=" M 422.99 176.92 C 429.10 170.06 439.31 168.53 447.89 170.65 C 452.40 171.63 456.50 174.48 458.70 178.58 C 456.32 177.65 454.17 176.26 451.85 175.21 C 442.56 171.68 430.94 173.59 424.16 181.15 C 418.49 186.85 416.92 195.21 416.88 202.96 C 416.78 215.64 416.87 228.32 416.84 241.01 C 416.77 246.48 417.36 251.98 416.65 257.43 L 416.23 257.75 C 416.14 237.83 416.25 217.92 416.17 198.01 C 416.11 190.52 417.59 182.48 422.99 176.92 Z" />
<path fill="#000000" opacity="0.54" d=" M 398.55 258.05 C 404.28 258.00 410.02 258.04 415.76 258.05 C 413.11 259.76 410.29 261.68 406.99 261.53 C 403.75 261.78 401.01 259.87 398.55 258.05 Z" />
<path fill="#000000" opacity="0.54" d=" M 615.56 258.04 C 621.49 257.98 627.42 258.05 633.35 258.03 C 628.51 262.32 620.14 263.09 615.56 258.04 Z" />
<path fill="#000000" opacity="0.54" d=" M 722.57 258.05 C 728.51 258.04 734.45 257.97 740.39 258.08 C 735.35 261.78 727.29 262.69 722.57 258.05 Z" />
</g>
<g id="#00000085">
<path fill="#000000" opacity="0.52" d=" M 680.54 176.58 C 686.97 169.80 697.41 168.47 706.10 170.88 C 710.72 172.09 714.51 175.50 716.68 179.71 C 710.77 176.12 704.13 172.45 696.95 173.75 C 689.09 174.53 681.95 179.35 678.08 186.19 C 676.38 189.90 675.44 193.92 673.52 197.55 C 673.31 190.05 675.17 182.09 680.54 176.58 Z" />
<path fill="#000000" opacity="0.52" d=" M 783.78 176.77 C 794.22 165.47 815.41 167.89 822.58 181.67 C 818.31 180.17 815.41 176.11 810.83 175.21 C 802.96 173.38 793.71 173.84 787.35 179.38 C 781.62 183.93 778.65 190.95 776.90 197.87 C 775.50 203.14 775.80 208.64 775.33 214.03 L 775.27 214.79 C 773.22 201.82 774.39 186.81 783.78 176.77 Z" />
</g>
<g id="#00000057">
<path fill="#000000" opacity="0.34" d=" M 1108.28 169.96 C 1109.80 171.35 1111.44 172.80 1112.03 174.89 C 1115.31 182.83 1114.69 191.54 1114.77 199.94 C 1114.80 217.63 1114.75 235.32 1114.83 253.01 C 1114.71 256.00 1115.05 259.48 1112.76 261.80 C 1109.97 265.36 1104.44 265.49 1100.88 263.11 C 1098.70 260.86 1097.57 257.85 1096.01 255.20 C 1094.26 256.00 1092.52 256.79 1090.95 257.88 C 1076.12 269.26 1053.51 269.89 1038.49 258.52 C 1030.92 252.39 1026.23 242.42 1027.64 232.62 C 1028.64 239.65 1031.86 246.35 1037.11 251.19 C 1038.74 255.61 1043.11 257.91 1047.06 259.92 C 1057.79 264.90 1070.47 264.48 1081.36 260.21 C 1086.52 258.09 1090.42 253.98 1095.01 250.95 C 1096.15 250.06 1097.64 250.48 1098.99 250.46 C 1098.97 252.97 1098.98 255.48 1098.99 258.00 C 1103.08 258.03 1107.18 258.04 1111.28 258.02 C 1111.28 234.02 1111.32 210.01 1111.23 186.01 C 1111.27 180.52 1110.30 175.06 1108.28 169.96 Z" />
</g>
<g id="#0000001e">
<path fill="#000000" opacity="0.12" d=" M 293.56 176.60 C 294.45 174.73 295.27 172.47 297.53 171.92 C 295.58 176.36 294.66 181.16 294.20 185.97 C 294.27 189.02 296.31 191.85 299.31 192.61 C 304.14 193.79 309.37 193.71 314.13 192.21 C 320.09 190.06 321.02 182.32 326.74 179.78 C 333.32 176.74 341.55 176.40 348.01 179.94 C 352.57 182.86 356.60 188.69 354.29 194.22 C 352.55 194.32 350.81 194.44 349.08 194.55 C 350.42 192.76 352.10 190.62 350.74 188.33 C 348.27 182.24 340.69 181.33 334.96 181.78 C 327.65 182.02 322.19 188.26 319.91 194.74 C 322.45 195.15 324.99 195.55 327.55 195.81 C 322.16 196.32 316.77 197.20 311.65 199.01 C 310.02 196.58 306.80 197.38 304.33 196.83 C 299.85 196.36 294.16 195.45 292.18 190.77 C 290.84 186.12 291.52 180.96 293.56 176.60 Z" />
</g>
<g id="#00000055">
<path fill="#000000" opacity="0.33" d=" M 424.16 181.15 C 430.94 173.59 442.56 171.68 451.85 175.21 C 454.17 176.26 456.32 177.65 458.70 178.58 C 461.58 183.54 462.01 189.41 462.01 195.02 C 461.96 216.02 462.06 237.01 461.96 258.01 L 461.98 259.11 C 461.56 257.43 461.39 255.71 461.36 253.99 C 461.43 235.30 461.44 216.62 461.43 197.93 C 460.63 190.84 457.03 183.97 451.56 179.34 C 444.79 175.66 436.09 176.52 429.76 180.69 C 424.19 186.73 419.65 194.49 419.80 202.96 C 419.50 220.30 419.90 237.66 419.70 255.00 C 419.50 257.05 419.74 259.52 418.15 261.10 C 413.20 264.91 406.38 265.28 400.51 263.76 C 397.66 263.17 396.12 260.50 395.05 258.04 C 396.21 258.04 397.38 258.04 398.55 258.05 C 401.01 259.87 403.75 261.78 406.99 261.53 C 410.29 261.68 413.11 259.76 415.76 258.05 L 416.23 257.75 L 416.65 257.43 C 417.36 251.98 416.77 246.48 416.84 241.01 C 416.87 228.32 416.78 215.64 416.88 202.96 C 416.92 195.21 418.49 186.85 424.16 181.15 Z" />
</g>
<g id="#0000004e">
<path fill="#000000" opacity="0.31" d=" M 323.35 178.35 C 329.75 173.95 338.25 172.81 345.63 175.19 C 349.34 176.29 352.30 178.89 355.48 180.99 C 356.68 185.24 356.51 189.71 356.41 194.09 C 355.88 194.12 354.82 194.18 354.29 194.22 C 356.60 188.69 352.57 182.86 348.01 179.94 C 341.55 176.40 333.32 176.74 326.74 179.78 C 321.02 182.32 320.09 190.06 314.13 192.21 C 309.37 193.71 304.14 193.79 299.31 192.61 C 296.31 191.85 294.27 189.02 294.20 185.97 C 294.85 185.96 296.14 185.94 296.78 185.93 C 297.70 187.11 298.62 188.30 299.54 189.49 C 304.14 189.74 308.85 190.29 313.39 189.25 C 317.81 186.78 319.18 181.17 323.35 178.35 Z" />
</g>
<g id="#00000068">
<path fill="#000000" opacity="0.41" d=" M 678.08 186.19 C 681.95 179.35 689.09 174.53 696.95 173.75 C 704.13 172.45 710.77 176.12 716.68 179.71 C 718.32 183.36 719.06 187.34 719.19 191.33 C 717.14 186.08 714.75 179.93 708.95 177.92 C 699.89 173.75 688.23 176.17 681.90 183.95 C 677.52 189.61 676.07 196.99 676.24 204.01 C 676.24 220.36 676.30 236.70 676.24 253.05 C 676.04 256.56 675.79 261.39 671.91 262.85 C 667.56 264.21 662.84 263.95 658.37 263.43 C 655.41 263.09 653.64 260.47 652.41 258.04 C 653.81 258.04 655.21 258.04 656.63 258.05 C 661.26 261.86 667.70 260.73 672.60 258.07 C 672.84 258.01 673.33 257.89 673.58 257.83 C 673.55 237.73 673.49 217.64 673.52 197.55 C 675.44 193.92 676.38 189.90 678.08 186.19 Z" />
<path fill="#000000" opacity="0.41" d=" M 739.27 174.96 C 741.59 181.02 743.02 187.45 742.77 193.97 C 742.57 210.66 743.28 227.33 743.18 244.01 C 742.99 249.32 743.96 254.94 741.91 259.99 C 738.95 265.28 731.98 263.53 727.00 263.68 C 723.27 264.07 720.29 261.41 719.19 258.03 C 720.31 258.03 721.44 258.04 722.57 258.05 C 727.29 262.69 735.35 261.78 740.39 258.08 C 740.30 235.40 740.42 212.71 740.29 190.02 C 740.27 185.69 739.67 181.38 738.81 177.14 C 738.93 176.59 739.16 175.50 739.27 174.96 Z" />
</g>
<g id="#00000047">
<path fill="#000000" opacity="0.28" d=" M 533.64 177.60 C 541.31 173.19 551.32 173.51 558.83 178.15 C 562.37 180.04 564.44 183.66 567.70 185.92 L 567.74 185.96 C 571.84 194.95 572.16 205.25 570.71 214.89 L 570.62 213.95 C 569.81 203.58 568.95 191.74 560.85 184.18 C 554.60 177.58 544.10 176.25 536.00 179.96 C 530.95 182.37 527.13 186.89 525.01 192.01 C 521.32 200.66 521.19 210.40 522.51 219.58 C 523.09 224.55 525.98 228.85 526.83 233.77 C 522.00 229.42 519.36 222.93 518.30 216.64 C 518.80 209.94 518.59 203.12 520.42 196.59 C 522.35 188.98 526.69 181.60 533.64 177.60 Z" />
</g>
<g id="#00000018">
<path fill="#000000" opacity="0.09" d=" M 536.00 179.96 C 544.10 176.25 554.60 177.58 560.85 184.18 C 568.95 191.74 569.81 203.58 570.62 213.95 C 570.15 220.94 567.06 227.63 562.57 232.95 C 553.87 243.23 535.86 243.76 526.83 233.77 C 525.98 228.85 523.09 224.55 522.51 219.58 C 521.19 210.40 521.32 200.66 525.01 192.01 C 527.13 186.89 530.95 182.37 536.00 179.96 M 543.27 183.30 C 537.56 184.13 532.38 187.58 529.59 192.65 C 524.27 202.02 524.87 213.54 527.33 223.67 C 529.11 231.59 535.93 237.99 544.02 239.00 C 550.17 240.13 556.46 237.04 560.19 232.22 C 564.79 226.60 566.44 219.11 566.21 211.98 C 566.63 203.56 564.34 194.69 558.69 188.27 C 554.62 184.57 548.79 182.24 543.27 183.30 Z" />
<path fill="#000000" opacity="0.09" d=" M 329.17 221.40 C 336.35 220.40 343.66 219.80 350.91 220.27 C 353.44 220.23 353.51 223.10 353.80 224.90 C 353.97 225.08 354.30 225.43 354.47 225.61 L 354.86 226.03 C 352.71 230.93 348.89 234.96 344.35 237.76 C 345.76 233.36 351.51 230.70 349.71 225.40 C 342.35 224.27 334.79 224.84 327.57 226.61 C 325.24 227.25 322.52 228.17 321.56 230.64 C 319.64 234.09 323.08 237.63 326.14 238.82 C 330.49 240.85 335.25 239.20 339.81 239.48 L 339.96 239.59 C 333.14 242.10 324.93 242.27 318.50 238.62 C 317.64 235.22 316.47 231.40 318.02 228.02 C 320.30 224.09 324.78 221.95 329.17 221.40 Z" />
</g>
<g id="#0000006a">
<path fill="#000000" opacity="0.42" d=" M 377.32 181.43 C 380.38 184.48 380.12 189.00 380.31 192.98 C 380.36 210.64 380.28 228.31 380.34 245.97 C 380.33 250.20 380.62 254.52 379.52 258.65 C 378.84 261.21 376.59 263.45 373.85 263.55 C 370.29 263.88 366.68 263.89 363.12 263.55 C 359.22 263.19 357.68 258.41 354.04 257.58 C 349.67 258.39 346.21 261.66 342.00 263.02 C 328.42 267.98 311.69 266.19 300.83 256.13 C 296.25 251.79 292.28 245.97 292.50 239.41 C 296.14 248.68 304.48 255.44 313.89 258.30 C 316.47 261.17 320.48 261.37 324.04 261.94 C 328.88 262.63 333.76 261.66 338.43 260.45 C 345.18 258.67 350.49 253.72 357.18 251.78 C 357.21 253.85 357.25 255.93 357.29 258.00 C 364.04 258.06 370.79 258.07 377.55 258.02 C 377.48 232.49 377.70 206.95 377.32 181.43 Z" />
</g>
<g id="#00000067">
<path fill="#000000" opacity="0.40" d=" M 1300.14 185.87 C 1303.16 188.73 1303.08 193.18 1303.87 196.98 C 1304.38 201.65 1305.55 206.81 1303.24 211.19 C 1301.35 214.36 1297.27 214.73 1293.96 214.76 C 1274.63 214.74 1255.30 214.77 1235.97 214.73 C 1232.86 214.79 1228.72 214.95 1227.39 218.35 C 1226.19 222.01 1227.45 225.92 1227.52 229.67 C 1225.71 225.97 1224.48 222.00 1223.80 217.94 C 1224.12 213.36 1228.79 211.11 1232.91 211.32 C 1253.28 211.31 1273.65 211.32 1294.01 211.35 C 1296.41 211.48 1298.46 210.11 1300.50 209.03 C 1300.88 209.00 1301.64 208.93 1302.01 208.90 C 1302.03 201.19 1301.84 193.42 1300.14 185.87 Z" />
</g>
<g id="#0000004c">
<path fill="#000000" opacity="0.30" d=" M 155.27 186.13 C 161.29 189.33 165.05 195.75 165.64 202.46 C 162.64 198.44 159.18 194.83 155.70 191.24 C 154.08 189.93 155.29 187.82 155.27 186.13 Z" />
</g>
<g id="#0000002e">
<path fill="#000000" opacity="0.18" d=" M 753.05 189.08 C 753.46 188.76 754.28 188.12 754.69 187.80 C 751.92 201.25 752.38 215.40 756.49 228.53 C 755.75 234.53 759.32 239.79 762.14 244.76 C 766.57 252.23 773.54 257.81 781.11 261.86 C 792.81 265.95 806.35 266.31 817.63 260.66 C 820.99 259.13 824.79 256.18 828.41 258.81 C 827.66 262.62 826.22 266.36 823.74 269.39 C 823.45 267.50 823.17 265.62 822.90 263.74 C 818.00 264.18 813.66 266.70 808.90 267.75 C 802.00 269.62 794.82 268.08 787.82 269.02 C 788.60 272.43 791.73 274.36 793.89 276.85 C 786.43 275.24 780.33 269.60 777.78 262.46 C 775.93 262.47 774.09 262.48 772.27 262.47 C 770.35 257.74 765.56 255.24 762.80 251.10 C 755.34 242.01 751.88 230.40 750.39 218.92 C 748.45 208.98 750.29 198.68 753.05 189.08 Z" />
</g>
<g id="#00000088">
<path fill="#000000" opacity="0.53" d=" M 888.32 194.02 C 909.78 193.99 931.23 194.01 952.69 194.01 C 950.25 196.10 947.34 197.70 944.03 197.39 C 929.68 197.35 915.34 197.43 900.99 197.34 C 897.95 197.42 894.61 197.30 892.01 199.12 C 889.43 201.27 889.22 204.88 889.21 207.99 C 889.25 222.67 889.21 237.36 889.25 252.05 C 889.16 254.18 889.26 256.43 888.45 258.45 C 886.99 259.88 885.03 260.82 883.01 261.03 C 880.77 261.10 879.24 259.22 877.54 258.09 C 881.13 258.00 884.72 257.98 888.32 258.00 C 888.31 236.67 888.31 215.34 888.32 194.02 Z" />
<path fill="#000000" opacity="0.53" d=" M 575.61 258.03 C 581.24 258.02 586.87 257.95 592.51 258.06 C 587.72 261.30 579.77 263.01 575.61 258.03 Z" />
</g>
<g id="#ff6257ff">
<path fill="#ff6257" opacity="1.00" d=" M 77.80 213.15 C 83.85 211.12 90.05 209.40 96.41 208.74 C 94.07 210.51 91.57 212.04 88.99 213.43 C 81.72 217.98 74.25 222.33 67.66 227.86 C 67.15 226.62 67.66 225.40 68.68 224.65 C 72.24 221.39 76.76 219.33 80.09 215.78 C 80.70 215.20 81.30 214.62 81.89 214.03 C 80.10 214.23 78.31 214.44 76.53 214.72 C 76.84 214.32 77.48 213.54 77.80 213.15 Z" />
</g>
<g id="#00000091">
<path fill="#000000" opacity="0.57" d=" M 1222.89 208.95 C 1248.76 209.00 1274.63 208.84 1300.50 209.03 C 1298.46 210.11 1296.41 211.48 1294.01 211.35 C 1273.65 211.32 1253.28 211.31 1232.91 211.32 C 1228.79 211.11 1224.12 213.36 1223.80 217.94 C 1223.30 214.96 1223.07 211.96 1222.89 208.95 Z" />
</g>
<g id="#00000081">
<path fill="#000000" opacity="0.51" d=" M 330.05 212.94 C 338.81 212.18 347.60 211.87 356.36 211.14 C 356.37 213.31 356.42 215.49 356.49 217.67 C 350.50 215.75 344.13 216.55 337.99 216.99 C 331.52 217.70 324.41 217.87 319.10 222.13 C 315.51 224.77 314.54 229.36 313.15 233.33 C 311.21 228.90 311.34 223.39 314.47 219.53 C 318.24 214.96 324.41 213.48 330.05 212.94 Z" />
</g>
<g id="#f34138ff">
<path fill="#f34138" opacity="1.00" d=" M 61.10 226.15 C 67.19 222.27 73.44 218.60 80.09 215.78 C 76.76 219.33 72.24 221.39 68.68 224.65 C 67.66 225.40 67.15 226.62 67.66 227.86 C 62.89 231.63 58.52 235.87 54.25 240.18 C 40.09 254.50 29.63 272.75 25.81 292.62 C 22.65 299.11 24.80 306.55 22.85 313.33 C 21.22 309.26 21.07 304.86 20.54 300.57 C 19.56 292.76 19.44 284.85 19.88 277.00 C 20.30 269.75 22.69 262.83 23.50 255.64 C 29.43 251.58 34.56 246.48 40.45 242.36 C 47.66 237.37 53.91 231.15 61.10 226.15 Z" />
</g>
<g id="#00000045">
<path fill="#000000" opacity="0.27" d=" M 319.10 222.13 C 324.41 217.87 331.52 217.70 337.99 216.99 C 344.13 216.55 350.50 215.75 356.49 217.67 C 356.18 220.43 355.96 223.27 354.75 225.82 L 354.47 225.61 C 354.30 225.43 353.97 225.08 353.80 224.90 C 353.51 223.10 353.44 220.23 350.91 220.27 C 343.66 219.80 336.35 220.40 329.17 221.40 C 324.78 221.95 320.30 224.09 318.02 228.02 C 316.47 231.40 317.64 235.22 318.50 238.62 C 316.19 237.45 314.55 235.45 313.15 233.33 C 314.54 229.36 315.51 224.77 319.10 222.13 Z" />
<path fill="#000000" opacity="0.27" d=" M 183.94 254.37 C 196.37 246.76 205.05 233.73 207.42 219.36 C 208.90 226.28 206.14 233.11 203.44 239.36 C 200.10 247.15 194.02 253.30 187.58 258.61 C 174.65 267.71 158.54 271.01 142.98 271.68 C 114.98 271.85 86.97 271.65 58.97 271.79 C 55.51 271.72 51.80 271.93 48.66 270.24 C 47.50 268.74 47.87 266.68 47.57 264.94 C 49.45 264.96 51.34 265.02 53.23 265.06 C 54.54 267.05 56.77 267.48 59.00 267.36 C 86.33 267.26 113.66 267.35 140.99 267.33 C 151.53 267.72 162.02 265.34 171.93 261.95 C 176.14 259.88 181.41 258.68 183.94 254.37 Z" />
</g>
<g id="#cd362eff">
<path fill="#cd362e" opacity="1.00" d=" M 16.43 225.95 C 17.24 225.23 18.09 224.55 18.93 223.87 C 17.78 229.26 16.77 234.70 16.51 240.21 C 16.56 244.61 17.98 248.89 19.67 252.92 C 20.92 253.87 22.21 254.75 23.50 255.64 C 22.69 262.83 20.30 269.75 19.88 277.00 C 19.44 284.85 19.56 292.76 20.54 300.57 C 21.07 304.86 21.22 309.26 22.85 313.33 C 24.80 306.55 22.65 299.11 25.81 292.62 C 25.68 294.27 25.57 295.93 25.47 297.59 C 24.91 303.38 24.72 309.19 24.20 314.99 C 24.16 316.64 23.27 318.06 22.55 319.49 C 20.55 315.88 18.99 312.05 17.68 308.15 C 14.30 296.96 11.22 285.63 9.90 273.99 C 8.65 257.77 10.00 241.05 16.43 225.95 Z" />
</g>
<g id="#00000083">
<path fill="#000000" opacity="0.51" d=" M 1298.39 237.14 C 1301.91 242.63 1297.06 248.88 1292.63 252.10 C 1288.83 253.07 1286.14 256.07 1282.69 257.73 C 1274.17 262.03 1264.45 263.73 1254.96 263.09 C 1246.78 262.52 1238.44 260.31 1231.91 255.18 C 1229.47 253.20 1226.22 251.59 1225.43 248.30 C 1229.40 251.48 1233.58 254.52 1238.37 256.36 C 1250.03 260.92 1263.27 260.56 1275.12 256.85 C 1285.13 253.76 1293.71 246.52 1298.39 237.14 Z" />
</g>
<g id="#0000007a">
<path fill="#000000" opacity="0.48" d=" M 503.41 238.16 C 506.87 243.38 510.74 248.51 515.94 252.13 C 525.57 259.14 538.23 261.05 549.79 258.87 C 558.44 257.19 566.13 252.17 572.00 245.70 C 572.00 249.60 572.03 253.51 572.04 257.42 C 568.41 255.91 565.08 258.53 561.95 259.99 C 552.47 265.15 541.02 265.86 530.65 263.36 C 519.41 260.67 510.09 252.49 504.42 242.61 C 503.65 241.25 503.69 239.64 503.41 238.16 Z" />
</g>
<g id="#00000090">
<path fill="#000000" opacity="0.56" d=" M 335.05 258.75 C 343.57 256.79 351.22 251.87 357.12 245.48 C 357.12 247.58 357.15 249.68 357.18 251.78 C 350.49 253.72 345.18 258.67 338.43 260.45 C 333.76 261.66 328.88 262.63 324.04 261.94 C 320.48 261.37 316.47 261.17 313.89 258.30 C 320.82 259.77 328.09 260.40 335.05 258.75 Z" />
</g>
<g id="#00000087">
<path fill="#000000" opacity="0.53" d=" M 807.07 257.71 C 815.47 255.98 822.92 251.12 828.64 244.83 C 828.56 247.46 828.59 250.09 828.64 252.71 C 825.35 253.38 822.21 254.61 819.42 256.46 C 809.82 262.51 797.64 263.09 786.90 260.20 C 782.14 258.64 776.62 256.99 774.10 252.26 C 783.83 258.29 795.92 260.12 807.07 257.71 Z" />
</g>
<g id="#0303038c">
<path fill="#030303" opacity="0.55" d=" M 236.62 258.05 C 241.90 258.00 247.19 257.98 252.47 258.09 C 247.99 261.53 241.03 261.69 236.62 258.05 Z" />
</g>
<g id="#0404048d">
<path fill="#040404" opacity="0.55" d=" M 656.63 258.05 C 661.95 257.98 667.27 258.00 672.60 258.07 C 667.70 260.73 661.26 261.86 656.63 258.05 Z" />
</g>
</svg>
